/* XPM */
static char *image__9__removebg_preview__1_1670601887[] = {
/* columns rows colors chars-per-pixel */
"50 50 252 2 ",
"   c #391B01",
".  c #281E00",
"X  c #2C2B03",
"o  c #2C2503",
"O  c #342500",
"+  c #342B00",
"@  c #3B2C02",
"#  c #392808",
"$  c #2A3708",
"%  c #333302",
"&  c #343B0B",
"*  c #373408",
"=  c #392D16",
"-  c #2A3A11",
";  c #3A3816",
":  c #2D2919",
">  c #3D3A29",
",  c #363434",
"<  c #461F00",
"1  c #581D00",
"2  c #661C00",
"3  c #711F00",
"4  c #4A2301",
"5  c #422C01",
"6  c #492602",
"7  c #552805",
"8  c #463309",
"9  c #573609",
"0  c #472B17",
"q  c #44351C",
"w  c #493716",
"e  c #583819",
"r  c #522C16",
"t  c #622A01",
"y  c #6A2803",
"u  c #742400",
"i  c #782901",
"p  c #663508",
"a  c #793807",
"s  c #683816",
"d  c #743B15",
"f  c #463827",
"g  c #583C26",
"h  c #463B39",
"j  c #442D27",
"k  c #633C25",
"l  c #763F2A",
"z  c #35460D",
"x  c #2C4715",
"c  c #334512",
"v  c #384917",
"b  c #385119",
"n  c #2A490D",
"m  c #3B4F21",
"M  c #474718",
"N  c #584517",
"B  c #54450E",
"V  c #66470B",
"C  c #664919",
"Z  c #774618",
"A  c #754F18",
"S  c #494728",
"D  c #584627",
"F  c #554835",
"G  c #5C543B",
"H  c #4F4F2C",
"J  c #694927",
"K  c #744A28",
"L  c #665528",
"P  c #765727",
"I  c #684A37",
"U  c #6A5736",
"Y  c #765B3A",
"T  c #744E35",
"R  c #576433",
"E  c #696837",
"W  c #786736",
"Q  c #69723B",
"!  c #71743D",
"~  c #6D652D",
"^  c #433F40",
"/  c #574742",
"(  c #595748",
")  c #524F4E",
"_  c #685846",
"`  c #635956",
"'  c #71584E",
"]  c #6A6747",
"[  c #746847",
"{  c #697449",
"}  c #766A55",
"|  c #767554",
" . c #73764B",
".. c #6A5C68",
"X. c #676667",
"o. c #736767",
"O. c #79747B",
"+. c #736973",
"@. c #5E6369",
"#. c #862A00",
"$. c #873707",
"%. c #923B08",
"&. c #893E13",
"*. c #894608",
"=. c #98440C",
"-. c #884717",
";. c #984A16",
":. c #9A521B",
">. c #87571C",
",. c #BE550C",
"<. c #AB4E15",
"1. c #A95319",
"2. c #BC5412",
"3. c #B85718",
"4. c #B34A09",
"5. c #BA731B",
"6. c #884C26",
"7. c #885829",
"8. c #985827",
"9. c #885A36",
"0. c #965C36",
"q. c #944721",
"w. c #A95A2B",
"e. c #B75C24",
"r. c #A95C34",
"t. c #9B6427",
"y. c #886638",
"u. c #976839",
"i. c #BB6127",
"p. c #A66536",
"a. c #B46B37",
"s. c #B5773C",
"d. c #AB6A30",
"f. c #C4550D",
"g. c #C35809",
"h. c #C35314",
"j. c #C25B1B",
"k. c #C65815",
"l. c #C75311",
"z. c #C36E2C",
"x. c #C1771E",
"c. c #896942",
"v. c #99764A",
"b. c #897856",
"n. c #967A55",
"m. c #8D7149",
"M. c #A76D45",
"N. c #AA774A",
"B. c #B67846",
"V. c #A77956",
"C. c #B67B56",
"Z. c #826C68",
"A. c #A46955",
"S. c #C37B4E",
"D. c #6B864D",
"F. c #668E4B",
"G. c #6C8D4C",
"H. c #688B45",
"J. c #728D4D",
"K. c #77864B",
"L. c #6D924D",
"P. c #689248",
"I. c #71914D",
"U. c #74944A",
"Y. c #6D8E52",
"T. c #6D8353",
"R. c #728653",
"E. c #738C53",
"W. c #7C8D54",
"Q. c #768959",
"!. c #7B8C5B",
"~. c #7C8454",
"^. c #6D9351",
"/. c #6D9851",
"(. c #729352",
"). c #7B9253",
"_. c #7C935B",
"`. c #789858",
"'. c #7C8E68",
"]. c #CB8932",
"[. c #848B57",
"{. c #9C865B",
"}. c #84945A",
"|. c #A6855B",
" X c #B98358",
".X c #B7864D",
"XX c #958969",
"oX c #889865",
"OX c #988E73",
"+X c #9C9277",
"@X c #8E9168",
"#X c #B1906C",
"$X c #9BAB78",
"%X c #8FA86A",
"&X c #A1B27D",
"*X c #C8884A",
"=X c #C88957",
"-X c #DA9859",
";X c #CC8A50",
":X c #E39E5D",
">X c #E08D57",
",X c #DBA25C",
"<X c #E3A35D",
"1X c #C78D65",
"2X c #C89668",
"3X c #D99C68",
"4X c #CD9C73",
"5X c #E49E63",
"6X c #E79D6B",
"7X c #E29E71",
"8X c #DEA264",
"9X c #DCA36C",
"0X c #D3A16B",
"qX c #DAA776",
"wX c #D2A672",
"eX c #E3A363",
"rX c #EBA464",
"tX c #E3A36B",
"yX c #EAA56B",
"uX c #E7AA6B",
"iX c #E4AA73",
"pX c #E7A876",
"aX c #F1AC73",
"sX c #E6B278",
"dX c #F2AB71",
"fX c #7C7982",
"gX c #837E85",
"hX c #84888D",
"jX c #93918C",
"kX c #A9B78A",
"lX c #AEBB91",
"zX c #ABB793",
"xX c #B2BD93",
"cX c #B9BD9E",
"vX c #AAAA8E",
"bX c #979AA2",
"nX c #9DA3AB",
"mX c #A69A8A",
"MX c #CFAF88",
"NX c #E8AD83",
"BX c #EAB486",
"VX c #EBBB8E",
"CX c #C4BAA6",
"ZX c #B7C198",
"AX c #BFC5A3",
"SX c #C9C9AB",
"DX c #CDCBB2",
"FX c #CBC8B4",
"GX c #D4CBB8",
"HX c #D7D5B9",
"JX c #E4CCA6",
"KX c #E1C39A",
/* pixels */
"L.L.J.J.^.^.Y.^.^.^./.P.F.(.`.G.J.U.L.P.P.F./.P.L.P.^.P.^.P.U.L.L.I.J.W.(.L.P.^.L.I.I.L.^.P.^.I.L.L.",
"U.L.I.I.^.^.^.G.G./.P.F.(.(.G.Y.G.I.G.E.(._.J.}.).).^.(.F.^.U.L.L.L.J.J.Y.L.^.^.L.I.I.I.P.L.I.I.I.L.",
"P.^.I.I.L.^.J.E.(.P.P.^.^.G.^.`.L.L._.!.[. .! Q W E [.!.oXE.P.P.L.(.I.J.I.L.P.P.I.I.I.I.L.L.J.I.L.L.",
"P.P.L.I.J.I.I.I.L.L.^.P.P.(.^.H.I.).Q L C L P P P W A N H K.).H.I.I.I.I.L.L.L.L.J.J.I.I.L.L.L.L.J.L.",
"/.P.L.J.J.U.J.I.L.I.L.L.(.L.P.`.[.L J .X2X0XsXsXsXsX9X4Xu.B Q oXI.G.P.I.(.P.P.L.I.J.I.J.L.L.I.J.J.(.",
"/.^.P.(.J.J.I.I.I.L.I.I.^.(.(.).M y.sXuXuXrX8XeX,X8XeXuXsX0XN E ).U.G.I.P.^.P.(.I.I.I.I.I.L.I.I.L.L.",
"Y.Y.P.L.J.U.I.U.L.P.(.J.F._.I.B y.sXuX,XrX:X<XeX8XeX,XeXuXiX=XN [.U.(.^.^.P.P.I.I.J.I.J.L.^.J.J.L.L.",
"^.P.P.U.H.I.I.I.L.P.L.I.I.J.! C sXeXaX<X<X<X:XrXeXeXrXeXeXuXsXA ! G.(.P.F./.^.L.I.I.I.L.L.L.L.L.L.G.",
"E.I.^./.L.U.P.L.L.L.^.P.J.}.L |.2X;X-X6XyXdX6XyXuXpXyX5X3X=XsXu.~ }.G.P.^.P.G.L.I.I.L.L.P.L.L.I.I.I.",
"W.E.P.P.P.L.U.U.G./.G.E.U. .B N.Z -.&.1.e.S.aX6X3XS.r.:.;.-.8.7.L K.G./.P./.L.J.I.L.L.^.L.L.L.L.L.L.",
"K.I.P.^.L.U.P.P.^.^.Y.J.[.~ V.M.t 8.r.w.w.&.M.NX8.q.w.a.w.-.t 9.c.{ }.E.^.F.^.G.^.L.^.P.L./.L.L.I.L.",
"(.(.I.L.L.L.(.(.Y.^.R.oXE 5 4X4X7.t 3 u u 2 p N.7 1 y 2 3 a u.2XP B }.G.(.`.Y.(.I.^.P.^.P.L.I.L.L.L.",
"(.^.G.I.I.I.G.L.Y.Y._.R L 9.M.pXB.8.y 1 y 6.6.7.d d t t y M.3X3X6.[ S !.!.G.J.(.J.L.P.^.L.L.I.P.G.I.",
"^.P.L.(.L.J.E.).!.!.S o #XwX7 S.3Xw.8.0.2XqX4XBXqX4X1X0.0.M.3X*.6.KXW & J.).E.J.E.L.^.P.L.G.I.U.L.^.",
"G.^.L.P.P.I.).~.] - $ & L V.y i S.1Xp.Z  X1XBXpXsX=X=Xd M.C.6.2 6.#XN X $ R K.}.E.Y.L.L.I.I.L.J.J.L.",
"G.^.L.L.U.J.E M $ & m v % 4 a r.$.y u &.&.a -.w.-.a i a 2 2 q.r.y 7 @ v n $ n H W.W.(.L.L.I.J.G.I.L.",
"F.^.^.).~ B L O S v x x M 5 1.i.#.%.i.i.e.e.;.i w.w.e.i.4.#.%.a.d < M c x b z $ # L Y.(.P.P.`.E.G.P.",
"Y.).~.B P #XqXc.. M m c ; 7 w.#.%.z.h.<.4.#.i i i %.<.<.z.z.#.&.0.< z v x c v O K m.M Q U.L.Y.Y.L.G.",
"_.{ 9 .XsXsX9XNXy.o c b @ s 8.$.r.&.3 #.3 #.<.<.%.#.u u i w.r.i p.7 % x x v + v.sXBX2X9 ~ ).G.^.^.L.",
"! 9 0XuX,X,XuX9XqXA X M   s 6.a #.3 %.&.3.i.<.j.3.3.<.%.i 2 &.y -.p X c b X y.sX9X,XaXuXV ~ ).I.L.I.",
"p  XpX:X,XuX<XrXpX0X8 8   s d 3 #.2.3.j.j.k.l.h.h.k.,.3.3.=.i 3 &.y o v & N qXuX8XeXrXtX2X7 [.H.E.L.",
"t 2XyXrX<X<X<XrXeXsXP @ # e *.=.3.j.f.f.f.l.l.f.k.f.g.g.2.3.e.%.q.1 + c 5 #XiX5XtX5X<XyXaXA H oX(.L.",
"7 2XtX8XeX,X<XeX<XiXP % * @ 8.e.j.,.f.k.k.g.g.g.g.,.k.2.j.3.<.e.6.  ; & V 3XyX5XtX9XtX9XtXu.M _.E.L.",
"p  X9XtX9X8XeX8XuXwX9 z & + a w.2.,.,.,.f.g.g.g.g.f.2.j.2.j.3.1.7 # - - A iX:XyXeXtX9X8X=X7.M oX(.G.",
"P P 6XyX6X5XyX3XNXv.* v z + 4 -.e.j.,.f.l.l.h.f.f.,.g.k.,.e.1.a   - x z 9 9X5XyX,XuXeX,X.XZ E _.J.L.",
"y.7 a.6X5X6XyXpX XV & c m $ O 7 &.e.3.2.f.l.h.k.2.f.,.,.3.:.a < o - v c 5 N.pXeXeX,XrX*X8.7  .[.J.L.",
"6 u.s.>XyX<X:X*X8.4 M v x x x o   s ;.e.h.h.f.3.j.3.3.1.-.7   * c n c v 5 A *X:X<X<X:Xa.d.Z N }.J.L.",
">.s.;XdXrX<X<X-XuXK * c x b x x #   4 a $.%.;.;.=.*.*.t 4 O - - n n x v 9  XiX-X<X,X<X-Xs.N.9  .W.G.",
"a.s.6X5X5XuX,X<XaXM.+ S m n n z c & o O O 5 5 0 8 + O % X $ c n b n b ; k NXtX5X<XdX:XyXs.B.C E ).L.",
"s.:.>X5XtX9X9XiXpX X  # ; b M b v M M v * ; o o X * & z v v v b z M v . K BX3XiXuXtX-XuXs.7.u.N [.L.",
"N.a 5XaXNXqX2X2X1Xc.  6 # * % % % $ * @ & N D D w 8 5 5 + @ 8 + @ O O   l 1X4X1X0XwXsXBXB.Z M.N W.L.",
"V.d 1XN.T k g g g r _ j e 9 V V V A A 7 m.MXJXKXMXK p 7.7.>.>.A K K e e k e J J J T 9.2XM.p v.C [.L.",
"C.l r ' ( > h h h j j j M.=X].].].].s.Z u.  n.vXr C 6.;X].].].].]..X7.0 j j h h f F _ g r 9.u.J }.U.",
"c.k Z.` ^ @.+.X...' ' 0 p a 5.x.x.s.].a s 7 r W 4 7 $.*X5.5.x.5.*.V K 0 ' ` ` ` ..) h +.f T c.C [.L.",
"  _ ` , hXnXhXO.Z.I k r Z p.p t.t.t.0.s VXMXV.v.4X Xd >.d.t.t.Z -.BXs 0 ' Z.O.gXbXbX@., ` f L { ).L.",
"j ` : ..nXhX'.( 0 T C.#X9.0.9 7 9 9 9 r w {.KXKXn.9 9 7 7 9 6 6 C.9.Z m.T 0 / +.hXbXbX^ F F ; W.J.L.",
"j , h fXfXO.` = v.VXBXpXqXt r ' U U U G D D S D D J T U Y U } I r 0.BXpXBX Xr / X.fXgX.., : { W.I.L.",
"[ : ) O.fX..j T qX*X-X9XA.< ' } [ [ } } } } | ] [ ] _ D S [ ] } r 9.3XyX=XpXn.0 ( +.gX+.^ , R.J.J.L.",
"~.H , X.+./ r 1XsX.X*.Z e I } m.} [ F f S ; S S S S o q _ } } o.' r a a :.=XVXk h X.+...h ( !.^.I.L.",
"E.!.v ) ` j 6.7XeXaX8X9.6 } ] / } _ H S : ] !.Q.!.}.] : U } F ` } g l C.sXaXpX#X= ( ) / > [.(.P.L.L.",
"L.^.| ; / 0 C.6Xp.N.N.k q F S S F f f * ] `.(.^.P.L._.{ X f S F G q k V. Xw.B.qXe F / = | (.P.P.L.I.",
"P.^.`.R * = M.NX Xd s   q j q j = ; w K.'.F.F.L.P.H.H._.R.= * q = q r e Z p.7X9XK w ; { `.G.U.H.L.L.",
"(.G.F.}.Q X 5 9.V.V.7 c.n.b.m.{.c.q M @XD.(.(.(.I.I.).J.~.; M [ b.n.V.J 7. XV.y.@ ;  .'.R.(.P.U.I.L.",
"G.(.^.G.).K.] U w < 0 L L P W J w ; E }.E.E.R.E.J.I.G.).!.M w D J g J K 4 9 C A { [.`.Y.^.G./.P.L.L.",
"_.F.^.F.P.(.E.oXb.D 8 5 9 N C L 8 G oXT.R.!.E.Y.K.W.K.R.'.| = N N e C V e 9  .}._.F.U.P.E.L.P.^.L.I.",
"Y.Y./.P.U.G.R.T.S ] b.XX#X{.n.n.q } zXzXlXzXkXZXlXxXkXzXcXmXq m.XX|.{.|.|.n.S { E.H.P.P.L.`.^.P.^.L.",
"I.L.^.^.).$XSXXXo g D D g g g q 0 vXHXSXDXSXDXFXFXSXHXFXGXGXf q I D D D k I = m AXZX%XU.H.J.Y.`.L.G.",
"L.(.G.G.).&XZXAX@XXXXXXXOXOXjXmXCXDXDXSXSXDXSXFXFXFXSXFXFXGXCX+XOX+X+X$X+X+XjXmXAXkX%XH.U.I.Y.Y.(.L.",
"L.I.I.(.G.H.E.W.oX%X$X&XkXkXlXZXkXkXlXlXZXZXxXZXxXxXxXlXlXlXlXxXxXkXkX&X$X%XoXoXE.G.G.G.I.I.G.I.L.L.",
"L.L.L.I.L.L.L.I.F.G.D.J.D.D.{ D.R.E.R.R.R.Q.R.R.Q.Q.Q.Q.Y.R.R.R.D.D.D.D.G.D.G.Y.(.L.G.G.I.L.L.L.L.I."
};
