/* XPM */
static char *image__2___1_1670606568[] = {
/* columns rows colors chars-per-pixel */
"50 50 207 2 ",
"   c #3B190F",
".  c #3E1D12",
"X  c #2D2B0E",
"o  c #34270F",
"O  c #38280F",
"+  c #24340E",
"@  c #253B0F",
"#  c #2C390F",
"$  c #32300F",
"%  c #392C12",
"&  c #3A2814",
"*  c #2A3E10",
"=  c #343411",
"-  c #3B3412",
";  c #323B11",
":  c #3F3018",
">  c #36292A",
",  c #3D3336",
"<  c #461E10",
"1  c #45270F",
"2  c #54250E",
"3  c #55290E",
"4  c #5E290E",
"5  c #442314",
"6  c #492715",
"7  c #432C14",
"8  c #44261A",
"9  c #432A1B",
"0  c #4B2C1B",
"q  c #552913",
"w  c #522D1A",
"e  c #46371C",
"r  c #4B321E",
"t  c #57341B",
"y  c #642B0E",
"u  c #6A2D0E",
"i  c #6E300E",
"p  c #74320E",
"a  c #7C350E",
"s  c #64351C",
"d  c #69381A",
"f  c #783B16",
"g  c #462E23",
"h  c #463526",
"j  c #4D3422",
"k  c #4C3B22",
"l  c #46352B",
"z  c #4A3D2C",
"x  c #533A22",
"c  c #563A26",
"v  c #483A39",
"b  c #593E31",
"n  c #673C22",
"m  c #753F20",
"M  c #2C4311",
"N  c #2F4A13",
"B  c #304513",
"V  c #304913",
"C  c #774215",
"Z  c #4F4327",
"A  c #574427",
"S  c #534B2B",
"D  c #5D4A2A",
"F  c #57522F",
"G  c #4D4432",
"H  c #544A36",
"J  c #5A5C34",
"K  c #5A523C",
"L  c #614529",
"P  c #66472A",
"I  c #7B4423",
"U  c #764729",
"Y  c #684736",
"T  c #654E3E",
"R  c #685736",
"E  c #725432",
"W  c #735C34",
"Q  c #7B5837",
"!  c #5D6439",
"~  c #5E6539",
"^  c #62693C",
"/  c #7B643A",
"(  c #7A653A",
")  c #64733F",
"_  c #473E41",
"`  c #4C4546",
"'  c #564A48",
"]  c #5F5841",
"[  c #534E52",
"{  c #58565B",
"}  c #6A5344",
"|  c #6A5646",
" . c #725B4D",
".. c #6A5952",
"X. c #6C6449",
"o. c #647341",
"O. c #667B44",
"+. c #687C45",
"@. c #746550",
"#. c #5C5C61",
"$. c #656367",
"%. c #6B6E73",
"&. c #72757A",
"*. c #77787E",
"=. c #83380D",
"-. c #8C3C0D",
";. c #923F0D",
":. c #8D3E10",
">. c #95400C",
",. c #9B430D",
"<. c #854518",
"1. c #9C4814",
"2. c #A4470D",
"3. c #A6480D",
"4. c #AB4A0E",
"5. c #B34E0E",
"6. c #BD520E",
"7. c #AC6214",
"8. c #BF6F15",
"9. c #854C27",
"0. c #8C522C",
"q. c #96572C",
"w. c #895936",
"e. c #965D35",
"r. c #A25E2F",
"t. c #A25F30",
"y. c #84693D",
"u. c #94613B",
"i. c #99643C",
"p. c #BB6A2F",
"a. c #A56435",
"s. c #A8693A",
"d. c #B56B35",
"f. c #BA6E36",
"g. c #B06C39",
"h. c #BD7137",
"j. c #BA723B",
"k. c #C3550E",
"l. c #CF7915",
"z. c #C1763B",
"x. c #C4793E",
"c. c #986943",
"v. c #8B7342",
"b. c #987B49",
"n. c #9D7C55",
"m. c #A26C42",
"M. c #AC6E41",
"N. c #A97245",
"B. c #B67C4C",
"V. c #B97A48",
"C. c #8A7868",
"Z. c #C77E43",
"A. c #698147",
"S. c #6A8549",
"D. c #6D8C4C",
"F. c #6E914D",
"G. c #70924F",
"H. c #739453",
"J. c #7B985B",
"K. c #7F9A60",
"L. c #9F8055",
"P. c #BB814F",
"I. c #A98556",
"U. c #B98755",
"Y. c #839C64",
"T. c #BE9D69",
"R. c #8BA06D",
"E. c #8EA370",
"W. c #92A574",
"Q. c #96A778",
"!. c #9AA97E",
"~. c #C9844A",
"^. c #D1894D",
"/. c #C58953",
"(. c #CB8D57",
"). c #D38D51",
"_. c #CA9359",
"`. c #D59154",
"'. c #D99456",
"]. c #D4955B",
"[. c #D8985D",
"{. c #DC9A5C",
"}. c #E19D5F",
"|. c #C4946A",
" X c #D09761",
".X c #DE9D60",
"XX c #E29F60",
"oX c #D1AF74",
"OX c #E4A363",
"+X c #E9A665",
"@X c #787C82",
"#X c #82868B",
"$X c #8E9398",
"%X c #92979D",
"&X c #A2AA86",
"*X c #A8B18D",
"=X c #AFAF94",
"-X c #B3B799",
";X c #BDBCA3",
":X c #DAB481",
">X c #C6BDAD",
",X c #C8BFAF",
"<X c #C9BFB0",
"1X c #C6C1AD",
"2X c #CCC3B4",
"3X c #CFC6B8",
"4X c #D0C5B8",
/* pixels */
"F.F.F.F.F.F.F.F.F.F.F.F.F.F.F.F.G.D.F.F.F.F.F.F.F.F.F.F.F.F.F.F.F.F.F.F.F.F.F.F.F.F.F.F.F.F.F.F.F.F.",
"F.F.F.F.F.F.F.F.F.F.F.F.F.F.F.F.G.G.F.F.F.F.F.F.F.F.F.D.F.F.F.F.F.F.F.F.F.F.F.F.F.F.F.F.F.F.F.F.F.F.",
"F.F.F.F.F.F.F.F.F.F.F.F.F.F.F.F.F.F.F.F.F.F.G.F.D.D.S.D.D.G.F.F.F.F.F.F.F.F.F.F.F.F.F.F.F.F.F.F.F.D.",
"F.F.F.F.F.F.F.F.F.F.F.F.F.F.F.F.F.F.F.D.A.o.^ R W / Q W E F ! O.F.F.F.F.F.F.F.F.F.F.F.F.F.F.F.F.F.G.",
"F.F.F.F.F.F.F.F.F.F.F.F.F.F.G.G.D.o.! W w.N.U.].[.XXXXXX]./.m.E S O.F.F.F.F.F.F.F.F.F.F.F.F.F.F.F.F.",
"D.F.F.F.F.F.F.F.F.F.F.F.F.F.S.! R w.B.[.OXOXOXOXOXOXOXOXOXOXOX.Xm.x ! H.F.F.F.F.F.F.F.F.F.F.F.F.F.F.",
"G.F.F.F.F.F.F.F.F.F.F.F.F.O.D c.(.OXOXOXOXOXOXOXOXOXOXOXOXOXXXOX+XB.w ) F.F.F.F.F.G.F.F.F.F.F.F.F.F.",
"F.F.F.F.F.F.F.F.F.F.F.F.S.D B.+XOXOXOXOXOXOXOXOXOXOXOXOXOXOXOXOX+X{.9.j D.F.F.F.F.D.F.F.F.F.F.F.F.F.",
"F.F.F.F.F.F.F.F.F.F.F.G.! e.+X+XOXOX+X+XOXOXOX).^..XOXOXOXOXOXOXOX'.f.w ^ G.F.F.F.F.F.F.F.F.F.F.F.F.",
"F.F.F.F.F.F.F.F.F.F.F.D.b B.XXB.u.e.w.B.XXOXXXZ.f.Z.).{.XXOXOXOXOX).j.s ! G.F.F.F.F.F.F.F.F.F.F.F.F.",
"F.F.F.F.F.F.F.F.F.G.S.D d e.w.=.3.4.;.4 B.+XOX`.z.z.d.s.j.{.OXOX{.x.h.d ! F.F.F.F.F.F.G.F.F.F.F.F.F.",
"F.F.F.F.F.F.F.F.F.G.+.t 4.a < :.4.5.;.4 a.XXOXXX'.).Z.m.u.w./.'.Z.h.f.s o.H.F.F.F.F.F.F.F.F.F.F.F.F.",
"F.F.F.F.F.F.D.F.F.F.D.S d n w w q 4 q I Z.XXOXOXXX.Xw.n a.e.U h.h.h.a.6 ! D.F.F.F.F.F.F.F.F.F.F.F.F.",
"F.F.F.F.F.F.G.F.D.G.^ E |.oX XZ.M.U s 0.(.OXOXOXOX`.t.r.t.t.d f.h.f.9.w.w.A ^ D.G.F.F.F.F.F.F.F.F.F.",
"F.F.F.F.F.F.F.F.F.F.A g.XXXX'.V.V.^.9.e.^.OXOX+X Xe.M.~.g.m q.h.j.d.s._.u.7 % S +.G.F.F.F.F.F.F.F.F.",
"F.F.F.F.F.F.F.F.G.A.A d q.q.9.u f q.t s e.m.B.m.9.2.2.9.:.1.p.z.d.a.w.t ; M N ; e J D.F.F.F.F.F.F.F.",
"F.F.F.F.F.F.F.F.) C ,.p u ;.>.2.;.-.p 4 ;.;.:.1.6.k.k.k.k.4.9.m t 7 = ; B ; M M B - Z A.G.F.F.F.F.F.",
"F.F.F.F.F.F.G.O.s 4.3.y =.6.k.k.k.k.4.4 5.k.k.k.k.k.k.k.k.p % % - e P U 9.Q E t - = = e O.G.D.F.F.F.",
"F.F.F.F.F.F.D.F y a a u y 2.k.k.k.k.6.4 4.k.k.k.k.k.k.k.;.% = t c.]..XOXOXOXOX[.B.n $ = e +.G.F.F.F.",
"F.F.F.F.F.D.A :.5.6.6.2.y =.6.k.k.k.=.i k.k.k.k.k.k.k.;.3 = 9 B.OXOXOXOXOXOXOXOXOX].U = = k D.F.F.F.",
"F.F.F.F.G.J a k.k.k.k.6.a u 4.6.3.a 4 3.k.k.k.k.k.5.,.4 X X U OXOXOXOXOXOXOXOXOXOXOX(.w ; O ^ G.F.F.",
"F.F.F.F.D.k 2.k.k.k.k.6.;.y ;.a 4 u 2.k.k.k.k.k.4.>.u o # o m.+XOXOX{.OXOXOXOXOXOXOX{.I $ = Z G.F.F.",
"F.F.D.F.D.t 3.k.k.k.k.k.,.2 4 y :.5.k.k.k.k.5.3.>.4 o + M O m.OXOXOXOXOXOXOXOXOXOXOX^.9.% ; e D.F.F.",
"F.F.F.F.D.Z :.k.k.k.k.k.2.-.,.5.6.k.k.k.k.4.;.=.2 X + M N % I {.OXOXOXOXOXOXOXOXOX{.j.d ; ; S F.F.F.",
"F.F.F.F.F.! q 3.6.k.k.k.6.k.k.k.k.k.k.5.2.-.y O X + M N N ; 7 s.{.OXOXOXOXOXOXOX}.~.r.7 M = ! F.F.F.",
"F.F.F.F.F.A.7 q -.3.5.6.6.6.6.6.5.4.,.-.u 1 o + @ M N N N % E 9.a.^.{.OXOXOXOX{.~.f.d $ B - O.F.F.F.",
"F.F.F.F.F.A.9 X O 3 i =.-.>.>.;.=.p y 1 o + M M N N N N o w..X.X~.^.`.OXOXOXOX'.z.f.9.o = S F.F.F.F.",
"F.F.F.F.F.G.k X @ + X o O 1 1 O O o + + @ * N N N N N # c ].OXXXOXOXOXOXOXOXOXOX'.z.q.& & o.F.F.F.F.",
"F.F.F.F.F.H.! & M N * * @ @ @ @ @ M M N N N N N N N V & i.+XOXOXOXOXOXOXOXOXOXOXOX^.q.< Z D.F.F.F.F.",
"F.H.F.F.F.F.D.S % B N M M M N N N N N N N N N N N V B & B.+XOXOXOXOXOXOXOXOXOXOX}.Z.0.< ) F.F.F.F.F.",
"F.F.F.F.F.F.F.D.J : e R / W A e ; ; = = - - - 7 - - & . B.+XOX+XOXOX[.{.OXOXOXOX).h.f A F.F.F.F.F.F.",
"F.F.F.F.F.F.F.F.G.A n.I.I.oXoXP.E y 7.7.7.7.7.7.C 8 l   U P././.B.m.m.].OXOXOX'.j.a.0 o.F.F.F.F.F.F.",
"F.F.F.F.F.F.F.F.D.x t   . I.oX|.U.D 8.l.l.l.l.f & > [ ` < f c.u.N./..X.XXXXX'.z.d.n z D.H.F.F.F.F.F.",
"F.F.F.F.F.F.F.G.O.j t  .b.oXI.w.I.t 7.7.<.p 6 , > > , { #.b e.(.+X+X+X+XXX^.z.d.m < F F.D.F.F.F.F.F.",
"F.F.F.F.F.F.F.G.J v.T.:X|.I.b.0 t f <.s Q 9 ` { { [ , , { $.' b w.B.(.).Z.f.t.0 < 6 ^ D.F.F.F.F.F.F.",
"F.F.F.F.F.F.F.F.! E n.n./ 0 j x c x 5 t t H { { %.@X$.` l _ { *.%...| n U n < < g 8 o.H.F.F.F.F.F.F.",
"F.F.F.F.F.F.F.F.D.A.O.) k g K @.| r i.s.8 [ #.%.&.&.&.&.{ [ _ _ [ { $.#.{ _ & l h e D.F.F.F.F.F.F.F.",
"F.F.F.F.F.F.F.F.F.F.F.G.! 8 G X.| 0 V.XXc.g [ %.&.&.@X@X$X%X#X$.[ _ > > > g z G 9 ! G.F.F.F.F.F.F.F.",
"F.F.F.F.F.F.F.F.F.F.F.F.S.9 h K X.c n 9.e.e.j _ $.&.@X$X%X%X$X#X&.$.v . x T H h k S.F.F.F.F.F.F.F.F.",
"F.F.F.F.F.F.F.F.F.F.F.F.F.! & G K  .| 8 9.)./.w.z ` $.@X#X#X@X%.{ v g } @.K G : ^ G.F.F.F.F.F.F.F.F.",
"F.F.F.F.F.F.F.F.F.F.F.F.F.F.J : z H G z 6 C g.V.e.w.Y b ' ' ' l 9 9 z G H z 9 S F.F.F.F.F.F.F.F.F.F.",
"F.F.F.F.F.F.F.F.F.F.F.F.F.F.A.9 x L L L L L L w m g.Z.e.f 0 c P n L L L D x 9 r O.G.F.F.F.F.F.F.F.F.",
"F.F.F.F.F.F.F.F.F.F.F.F.F.G.O.r W y.y.y.v.v.v.W c w w q 0 W v.v.v.v.v.v.y.R A 9 +.F.F.F.F.F.F.F.F.F.",
"F.F.F.G.F.F.F.G.F.F.F.F.F.A.! r 6 6 r P y.( ( W D t 8 } T j e P / @.W A j 7 e J D.F.F.F.F.F.F.F.F.F.",
"F.D.F.F.G.G.F.G.H.H.H.H.! A E ( y.y.W E y.b.b.b.( x 0 } W Y P E / y.L./ D r ! H.H.F.F.F.F.F.F.D.D.F.",
"J.Y.R.E.!.&X*X*X=X-X-X&Xj L ( W W W W W W W W W A 6 L W / ( ( / W W W D A 0 C.;X-X-X=X*X&X!.W.R.R.J.",
";X1X2X4X4X4X2X2X4X4X4X>XC.@. .|  . . . . . . . .} } T T T T T T } | W | |  .=X3X2X3X4X4X3X2X2X2X1X;X",
"R.Q.&X*X-X-X-X>X>X>X<X2X<X2X1X2X2X2X4X2X2X4X2X2X2X1X>X,X,X<X1X>X>X>X2X1X>X2X1X1X1X1X;X;X-X-X*X&XW.R.",
"F.F.F.F.F.H.H.H.J.J.Y.Y.Y.Y.Y.R.R.W.R.W.Q.W.Q.Q.W.Q.Q.W.W.Q.R.W.W.R.R.R.R.J.Y.K.J.J.H.H.F.H.F.F.F.F.",
"F.F.F.F.F.F.F.F.F.F.F.F.F.F.F.F.F.F.F.F.F.F.F.F.F.F.F.F.F.F.F.F.F.F.D.F.D.D.F.F.F.F.F.F.F.F.F.F.F.F."
};
