/* XPM */
static char *avatar4__1_1670605364[] = {
/* columns rows colors chars-per-pixel */
"50 50 248 2 ",
"   c #2B1702",
".  c #321B01",
"X  c #3C1D00",
"o  c #3A1907",
"O  c #331007",
"+  c #2D2901",
"@  c #282704",
"#  c #332300",
"$  c #3B2301",
"%  c #342C04",
"&  c #382B0A",
"*  c #2B3409",
"=  c #31340A",
"-  c #393408",
";  c #2D2216",
":  c #382B16",
">  c #3B3C13",
",  c #383818",
"<  c #273B16",
"1  c #3A3434",
"2  c #352A24",
"3  c #461C04",
"4  c #531C00",
"5  c #510700",
"6  c #6C1E00",
"7  c #601A00",
"8  c #442401",
"9  c #442C01",
"0  c #482908",
"q  c #572702",
"w  c #463706",
"e  c #553609",
"r  c #472A16",
"t  c #473818",
"y  c #593716",
"u  c #6B2903",
"i  c #782800",
"p  c #663409",
"a  c #793805",
"s  c #663C18",
"d  c #733E13",
"f  c #4B3727",
"g  c #563A26",
"h  c #423639",
"j  c #653B21",
"k  c #37470C",
"l  c #2B4815",
"z  c #374717",
"x  c #2A480F",
"c  c #3C4820",
"v  c #464719",
"b  c #564619",
"n  c #4C4E15",
"m  c #66451C",
"M  c #764417",
"N  c #704E15",
"B  c #59442A",
"V  c #465323",
"C  c #575527",
"Z  c #594636",
"A  c #4D502F",
"S  c #664729",
"D  c #685528",
"F  c #75562B",
"G  c #664B36",
"H  c #65523B",
"J  c #6A5637",
"K  c #735D3D",
"L  c #795A36",
"P  c #7A4C29",
"I  c #5B6839",
"U  c #59612B",
"Y  c #666736",
"T  c #78663A",
"R  c #6A783D",
"E  c #716D35",
"W  c #4D4446",
"Q  c #5A5157",
"!  c #695747",
"~  c #785D45",
"^  c #675959",
"/  c #654943",
"(  c #796446",
")  c #6B7544",
"_  c #787C4A",
"`  c #7E685D",
"'  c #7B7856",
"]  c #6F6647",
"[  c #655A63",
"{  c #757578",
"}  c #6F6A6D",
"|  c #822D00",
" . c #853805",
".. c #973B00",
"X. c #8D3C13",
"o. c #96450C",
"O. c #864617",
"+. c #974917",
"@. c #944E14",
"#. c #BD560E",
"$. c #B5550B",
"%. c #AA4C16",
"&. c #AB5217",
"*. c #BC5413",
"=. c #BC5B1C",
"-. c #B65817",
";. c #B75010",
":. c #994E27",
">. c #85532A",
",. c #985526",
"<. c #865D35",
"1. c #925932",
"2. c #A65A27",
"3. c #B95B23",
"4. c #A8582E",
"5. c #966529",
"6. c #8A6539",
"7. c #966539",
"8. c #B4682C",
"9. c #A86837",
"0. c #B76B38",
"q. c #A9743B",
"w. c #B9753A",
"e. c #A56729",
"r. c #B7601D",
"t. c #C4540C",
"y. c #C85709",
"u. c #C35513",
"i. c #C45A17",
"p. c #C04F0B",
"a. c #C35C22",
"s. c #C16F34",
"d. c #C4611E",
"f. c #83684C",
"g. c #977445",
"h. c #8C7653",
"j. c #947756",
"k. c #8D6E4E",
"l. c #AB6E44",
"z. c #AA7649",
"x. c #B77848",
"c. c #A87A57",
"v. c #B7794E",
"b. c #81766F",
"n. c #AB7F62",
"m. c #C67E43",
"M. c #6C8B46",
"N. c #668F4A",
"B. c #6C8C4C",
"V. c #698848",
"C. c #728D4D",
"Z. c #798D4D",
"A. c #76844D",
"S. c #6B9346",
"D. c #66924B",
"F. c #6D924D",
"G. c #71914D",
"H. c #78914B",
"J. c #6E8C51",
"K. c #748553",
"L. c #738D53",
"P. c #7B8D55",
"I. c #798857",
"U. c #6D9252",
"Y. c #6C9753",
"T. c #729252",
"R. c #7B9354",
"E. c #759259",
"W. c #7C935B",
"Q. c #769956",
"!. c #7C9462",
"~. c #7E8863",
"^. c #D28E3D",
"/. c #82884C",
"(. c #838C5A",
"). c #83945A",
"_. c #918957",
"`. c #A88155",
"'. c #B78959",
"]. c #BC8751",
"[. c #9B8863",
"{. c #869966",
"}. c #8F9571",
"|. c #A68D67",
" X c #B48A67",
".X c #BC9A74",
"XX c #B0926C",
"oX c #8EA16E",
"OX c #94A474",
"+X c #98A57A",
"@X c #8FA271",
"#X c #A2AB7E",
"$X c #C98949",
"%X c #D28D4A",
"&X c #D89659",
"*X c #CB8D54",
"=X c #E39E5C",
"-X c #E79C59",
";X c #DEA15E",
":X c #E4A25D",
">X c #E9A35E",
",X c #E7A257",
"<X c #C79668",
"1X c #DD9D62",
"2X c #D59865",
"3X c #C59873",
"4X c #CB956E",
"5X c #E39E65",
"6X c #E29F69",
"7X c #E19B7A",
"8X c #DCA265",
"9X c #D9A26C",
"0X c #D9A776",
"qX c #CEA672",
"wX c #E4A364",
"eX c #EAA464",
"rX c #E4A36A",
"tX c #E9A969",
"yX c #E4AB73",
"uX c #EBAA73",
"iX c #E7A978",
"pX c #E8B27B",
"aX c #F1AC6F",
"sX c #7C7D81",
"dX c #847886",
"fX c #7E8689",
"gX c #919091",
"hX c #A8AD87",
"jX c #AAB38B",
"kX c #B4B997",
"lX c #ACB993",
"zX c #BEBEA3",
"xX c #9FAE85",
"cX c #D1AE86",
"vX c #E8AE81",
"bX c #E7B382",
"nX c #EBB896",
"mX c #F2BF8A",
"MX c #C6B9A9",
"NX c #BBC5A3",
"BX c #C5C9AB",
"VX c #CBCBB4",
"CX c #CECBB8",
"ZX c #D4CDB5",
"AX c #CDD2B4",
"SX c #D8D4B8",
"DX c #CDD1AC",
"FX c #EBD1AF",
/* pixels */
"F.U.C.L.Z.C.F.D.D.G.M.G.T.D.F.F.G.M.G.F.B.F.F.Y.F.D.F.D.F.F.S.H.L.L.U.U.J.L.Z.Z.H.S.H.C.G.G.D.Y.F.F.",
"U.F.G.L.Z.G.D.Y.D.F.Q.C.F.F.F.S.Q.S.G.F.C.T.L.L.L.U.B.F.F.F.M.G.G.T.U.D.T.T.T.C.G.G.G.S.C.G.F.F.F.B.",
"F.F.F.C.H.G.D.F.F.T.C.C.Q.S.F.T.D.D.Q.T.W.(._ P.I.P./.R.R.G.F.F.F.S.S.S.D.Y.N.U.F.F.S.H.F.U.L.U.G.F.",
"F.F.F.C.G.G.F.F.T.C.M.G.D.F.T.M.R.Q.R D b b F D F D D D Y R Z.R.Q.S.F.S.F.D.D.D.F.F.F.G.F.L.U.G.F.G.",
"F.F.F.G.G.G.F.F.H.C.T.C.F.D.M.).h.b b 6. X9X0XtX8X8X2X'.7.L D D E /.).H.J.U.Y.F.D.F.F.G.S.H.F.F.F.G.",
"F.F.F.F.F.G.U.C.B.H.H.B.Y.M.).E 8 6.0XbXyXtX;X>X>X,X;XyXmXpX3X'.F n U /.W.L.V.F.F.F.U.F.S.C.G.F.F.F.",
"F.F.F.F.F.G.G.C.G.G.F.F.S.Q._ $ q.pXtX;XtXwXtX:X:X:X:X:X;X8X0XyXpX'.5.e E ).L.T.U.U.L.C.T.J.U.L.G.U.",
"F.F.D.F.F.G.G.F.F.T.F.F.F.Z.- N 8X:XtX;X8X8X;XwXtX>X>X:XeXwX:X:X1XyXbX].e /.T.J.L.T.G.U.U.U.U.F.G.B.",
"G.S.F.F.F.G.G.F.B.D.D.Y.T.R $ l.2XeX5XwXrXwXwXaX,X%X%X,XeXwXuXuXyXpXiXvXK C ).L.J.T.T.F.F.S.G.G.F.F.",
"G.F.F.F.G.G.F.F.Y.N.D.F.T.Y e z.*XtXrX5X1XuXrX*Xm.8.w.eXrXuX].:.:.,.m.vX3X9 (.C.T.U.L.F.G.S.F.F.F.G.",
"H.S.G.F.C.G.J.F.N.Y.D.U.W.Y y v.w.&X6XyXiX9.,.9.q.w.*XwXrX$X4  .+.+.i 4.7.e C _ T.U.F.L.Q.F.F.F.F.G.",
"G.G.F.G.G.G.F.F.U.U.U.U.I.h.q l.w.w.1X1XO.5.x.*X&X;XwXrXiX7.4 ,.2.4.:.5 u g.$ R L.U.U.F.U.T.U.F.F.F.",
"G.G.F.F.U.F.F.U.T.V.L.W.(.T 5 l.m.0.s.a ,.l.p O.6XuX6X6XrX*XO.3 3 3 4 u p 8 n {.T.U.F.F.G.G.G.M.F.G.",
"G.G.F.F.F.U.F.U.B.).R.R v Y f.p 0.s.$Xu 9.9.,.,.&X6X6XuX1X4X>.p N `.<X4XnXqXD U L.F.F.F.G.F.G.G.F.F.",
"G.C.F.F.U.U.U.T.W.A.n + + T cXz.4.m.w.,.u q.2Xx.:.5XuXuXvX4X7.P 0Xv.l.7X7XnXc.w R.F.F.F.C.H.F.F.C.F.",
"F.F.F.D.F.J.L.I.I = % v v $ 0 6.l.x.v.v.:. .X.o.o. .3.x.9.4.p 4 :.X.6 X.:.:.p y /.Z.G.F.C.T.F.F.U.F.",
"B.Q.D.G.J.I.~.V + v w - - r & . 8 y F M :.0.%.a.i.-..... .O.u u  .o.%.o.| i u 1.s F ).F.F.Y.F.F.F.G.",
"Q.M.F.D.E.I., : w % e D D D F m 0 $ $ X u 8.i.p.t.#.i.a.d.3.6 2.r.i.;.3.m. .6 :.:.p R Q.F.F.F.D.F.F.",
"N.U.D.T.C.+ > 0 e g.qX0XpXpX0XbX9X`.9 y 4  .=.t.t.t.*.u.*.;.6 2.-.*.p.a.+.6 | | | u S (.Z.M.M.Q.C.U.",
"U.Q.D.Q.V - - e 9XyX0X8X8XrX&XwXrXpX X8 8 4 +.*.i.t.i.u.p.a.| i 3.-.*.3.| 6 %.u.-.2.M e /.H.C.B.G.F.",
"U.B.L.) @ - $  XyX&X:XeX:X,XeXeXwX8XbX<.X 0 q +.%.u.#.u.t.i.%.6 i ,.3.%.i  .=.#.$.-.8.u D H.L.T.F.F.",
"C.T.).V = - s <X8XtXeXeX>X>X,X,XwXrX6Xc.. > $ q @.&.-.-.u.u.3.%.6 7 | +.6 X.3.#.i.-.3.+.w /.A.T.L.F.",
"H.A.I.V - 9 S <XrX=X5XeXwX8X:X,XeX5XvX`.  z = . q d o.-.i.t.i.*.-...| 6 4 o.=.u.u.*.a.:.b A.L.T.C.F.",
"C.C.W.V = r e c.1XeX5X5XtX8X;XwX5XrXiXP @ z l * # q d +.%.*.#.i.u.u.&.o. .o.#.u.i.*.s.X.w R.L.C.G.G.",
"S.H.E.I * v $ <.$XeX5X6XtX6XwXtXeXeXl.X t z l z * # $ e X.+.%.u.u.u.i.=.=.$.t.y.t.=.:.q Y T.Y.F.F.F.",
"F.M.U.E.* , r q 9.$X&X6XtX6X;X&X%Xe.d F # z z x z = % # 0 p  .+.&.&.&.-.&.=.#.&.&.O.4 o L.U.M.Y.F.F.",
"G.F.F.!.V = 0 m 0.w.%X>X5XeX5X&X%Xw.9XbX6.+ l z x x z = @ + 9 q p M O.O.O.O.d p 9 $ $ & K.M.T.F.G.C.",
"F.G.U.E._ % . <.w.-X5XeX-X-XtX:XwXtXwX2X0Xb * z x l x l l < = $ % # $ 9 q $ 8 # @ > : , R.G.F.F.F.U.",
"F.G.T.B.!.A   >.].>X>X,X:X:XwXwXwXtX8X8XpXg.+ z x x k k z z l , k * * * = > > > v > @ I E.G.F.F.F.F.",
"G.T.M.C.I._ # P ].;X>X-X>XtXwXrX8XwXtX8XyX<X. , z k n k k z z c v z z z < = = k k @ V L.C.B.U.U.F.F.",
"S.G.D.F.I.(.B e x.$XeXeX:XwX6X2XpXtXtXyXyX<X3 ; : $ w 9 9 - 0 9 % % w e D f.! f * A W.L.T.G.B.T.L.F.",
"G.S.F.M.C.W.' $ 7.x.&XeX>XrX2Xe.2.w.].].<Xj O f r D 7.q.5.5.5.5.b m |.cXFXXX|.|.c {.I.T.M.T.R.B.G.F.",
"T.T.G.G.T.M.{.v 0 v.0.*XaX-XeXeX$Xe.,.7.j ; W [ 2 O g l.$X$X^.w.n .X.X0X XO O t > K.W.J.T.F.F.F.C.F.",
"J.T.C.H.G.B.).U O j v.v.$X=X6XuXuXnX0Xk.f ^ [ h 2 2 g 3 u a &.e.e '.L `.nX|.S . % _ I.C.U.T.F.F.G.F.",
"U.T.F.S.N.J.!.) & 3 q 1.c.n.3X3Xn.<.f / b.[ 2 h W [ ^ g 3 <.s O.j q 8 j.XX3XFXcXh.c Q.G.G.F.M.G.F.F.",
"U.G.S.S.N.J.E.K.& f 3 3 j j j G / b.b.Q 1 ; W [ dX} [ Q h g y O j y y y X J _.[.C U Q.G.D.F.S.G.G.F.",
"D.S.S.S.G.Q.L.!.V t g o g ^ ! b.[ Q 1 2 W } { sXsXsX} [ ! O k.v.0 ~ k.~ : - ) I R Q.M.M.Q.N.F.S.F.F.",
"S.S.S.G.S.S.F.E.I @ Z Z f ; 2 ; 1 Q [ gXgXgXsX{ { } { / 3 k.nX Xo ! ^ A @ I {.E.T.V.Q.F.S.D.Y.S.F.F.",
"F.S.G.S.F.F.F.F.I.f : Z ~ h O h } fXgXgXgXgXgXfX{ } f 3 k.1.P s g ` Z 2 = K.K.E.E.M.C.R.C.G.M.U.G.G.",
"S.G.G.G.G.F.G.G.E.) ; v / h.! 2 1 Q } sXgXgXdX^ h f L 3XcX>.O G ` ! A @ I E.U.J.F.G.T.M.R.C.U.T.T.G.",
"L.T.E.T.T.U.D.F.T.W.C ; f g Z f : @ 2 / / Z f g <.6.'.c.j 3 y g g , , A !.V.T.F.F.F.F.G.G.F.T.G.G.U.",
"L.U.J.U.U.G.F.D.F.A.> , g B B B B B S g 2 f n.n.'.N 3 y j S B S Z B = ' E.E.F.T.F.F.F.F.F.F.F.U.U.U.",
"F.F.U.J.U.U.F.F.M.L.* f J j.j.j.g.`.j.[.f.r 3 r & g T f.j.h.j.j.h.( - _ I.B.G.M.S.F.D.F.D.Y.Y.D.D.F.",
"G.G.F.F.T.T.G.G.T.E.A v r r t S T F S 0 r j ~ r g g J T K T S $ $ . w C A.W.C.L.T.G.G.U.F.U.U.Y.F.F.",
"C.F.M.C.K.C.K.C.K.I.}.] : S ( |._.K L D j L f.r f k.[.[.|.h.T L f.h.f.J b Y I.I.L.K.K.K.L.B.B.V.G.F.",
"R.W.{.OX+X#XhXhXlXlXzX}.. B C H J K K ( f.f.J G . e K D J S J ] K J ~ L B @ jXBXkXlXjXhXhX+X+X@XW.E.",
"NXNXDXDXVXCXSXCXCXVXZXMX~ J Z Z B J / g h G B Z H G G ! H ! H ! H J H ! ! } MXVXVXCXAXAXAXVXDXBXBXBX",
"@XOXxXlXkXzXzXzXNXNXBXVXSXSXSXDXZXZXCXSXCXSXZXZXZXSXFXSXSXSXSXSXSXSXAXSXSXSXVXVXVXNXNXNXkXkXhXhX+X@X",
"U.N.J.J.L.L.I.L.W.!.!.{.{.{.{.oXoXoX@X@XOXOXOX+XOXOXOXOX@X@XoXoXOX{.{.{.{.{.{.!.!.W.E.L.L.L.L.B.J.B.",
"F.Y.F.F.B.F.U.G.C.B.B.B.J.M.B.B.V.B.V.J.J.J.J.V.K.V.V.J.J.B.K.B.B.L.B.B.T.L.B.M.G.U.B.C.F.U.G.G.C.B."
};
