/* XPM */
static char *image__4___1_1670600076[] = {
/* columns rows colors chars-per-pixel */
"50 50 83 1 ",
"  c #6E924D",
". c #6D914D",
"X c #688D4A",
"o c #698D4B",
"O c #6C904C",
"+ c #6B8F4C",
"@ c #6A8E4B",
"# c #6E934D",
"$ c #769B50",
"% c #74994F",
"& c #72974E",
"* c #779D50",
"= c #6F934D",
"- c #70944D",
"; c #789E50",
": c #70944E",
"> c #769C50",
", c #769D4F",
"< c #769C4F",
"1 c #71964E",
"2 c #759B4F",
"3 c #7AA150",
"4 c #73994E",
"5 c #759A4F",
"6 c #6F944D",
"7 c #7BA251",
"8 c #799F51",
"9 c #73974E",
"0 c #688E49",
"q c #6B914A",
"w c #6C914C",
"e c #698E4A",
"r c #6A914A",
"t c #6B904B",
"y c #799F50",
"u c #6B8F4B",
"i c #698F49",
"p c #72964E",
"a c #70954E",
"s c #6D914C",
"d c #6B904C",
"f c #769B4F",
"g c #73984F",
"h c #71954E",
"j c #638748",
"k c #638848",
"l c #678B4A",
"z c #608547",
"x c #6A8F4B",
"c c #608446",
"v c #749A4F",
"b c #789D50",
"n c #618547",
"m c #628647",
"M c #658949",
"N c #6D924D",
"B c #678C4A",
"V c #688C4A",
"C c #698E4B",
"Z c #73984E",
"A c #779C50",
"S c #79A150",
"D c #739A4E",
"F c #7AA151",
"G c #69904A",
"H c #789F50",
"J c #688F49",
"K c #73994F",
"L c #618647",
"P c #648949",
"I c #79A050",
"U c #72994E",
"Y c #779D4F",
"T c #688D49",
"R c #6A904A",
"E c #6A904B",
"W c #6E8D4C",
"Q c #6E8E4C",
"! c #79A051",
"~ c #759C4F",
"^ c #78A050",
"/ c #698F4A",
"( c white",
/* pixels */
"        .X                oO               +@     ",
"#     $%               &* =        #    -;:#      ",
">&    *,<1       &2=   &345       6*6   =74*#     ",
"*89   .0qw       98$    ert       -y;=   uit      ",
"=pa    sO         ap    .+         69     d.      ",
"             =f%               g$=              h*",
"              %&               &%               :2",
"  OO               s+                +.           ",
"  jk               lzO      #       xco      #    ",
"  OO     hfv       s+     =%*        x.     g*a   ",
"         %*&              a;%               b56   ",
"   -fh   =#          5g    =          &5=   =     ",
"   :>h   .           5g   .           &2=  ..     ",
"        @nu              wml               MkN    ",
"        OBs              .V+               Co     ",
"=     >% =             Z*#=        =    -y:=      ",
"A&    >,<1       &2=   &SDv       6*-   =F4*#     ",
"*8Z   .0rw       &8>    eGt       -H;=   uJt      ",
"=1:    sO         ap    .O         =&     O.      ",
"             =$%               %>=              1;",
"              K&               p%               :5",
"  OO               s+                u.           ",
"  jk       #       lzO      =       xco      =    ",
"  OO     h>v       s+     =v*        +.     g;a   ",
"         %Ap              a;g               *5=   ",
"   :>h   =           5g    =          92=   =     ",
"   -fh   s           vg   .           &5=  ..     ",
"        @zx              OLl               Pk.    ",
"        OVs              .V+               @o     ",
"=     >v =        #    g;==        =    :8:=      ",
"*Z#   >,<1       9f=   &IDv       6*:   =FUY#     ",
"A8Z   .TRw       &8>    eGt       6;H=   uJE      ",
"=1:    sO         :1     O         =&     O.     =",
"             =>%               %>=              1;",
"              gp               1g               :5",
"  +O               sx                @.           ",
"  jk       =       lzO      =       xco      =    ",
"  OO     1>5       .+     65*        +.     g;a   ",
"         %>1              a;g               *v=   ",
"   :>1   =           5g    =          g2=   =    W",
"   62h   s           %g   s           &5=  ..    Q",
"        Czx              OLl               Pk.    ",
"        wVs               X+               @C     ",
"=     A5 =        =    g;==        =    :!a=      ",
"*g=   f~<1       Zf=   &^Dv       -;:   =IUY#     ",
">8g   .TGw       &y>    e/t       6;y=   u0E      ",
"#1:    .O         :1     O         =&     O.     =",
"             =>%               %>=              1;",
"              g1               1g               :%",
"  Os               .O                O            "
};
