/* XPM */
static char *_74_9746849_viking_squad_food_transprent_ham_cartoon_png_removebg_preview__1___1_1670664316[] = {
/* columns rows colors chars-per-pixel */
"50 50 253 2 ",
"   c #090A00",
".  c #160900",
"X  c #1B1802",
"o  c #0D1000",
"O  c #250A06",
"+  c #360900",
"@  c #231B03",
"#  c #261309",
"$  c #381705",
"%  c #3C1B18",
"&  c #2C1613",
"*  c #1C2601",
"=  c #1F3100",
"-  c #292803",
";  c #352807",
":  c #363709",
">  c #3B2819",
",  c #393C16",
"<  c #2A340D",
"1  c #3D3424",
"2  c #461806",
"3  c #541C05",
"4  c #471B12",
"5  c #481106",
"6  c #462606",
"7  c #53230C",
"8  c #592507",
"9  c #473A05",
"0  c #492719",
"q  c #552513",
"w  c #5D2613",
"e  c #5C2B14",
"r  c #5C2D1C",
"t  c #552818",
"y  c #473913",
"u  c #59331A",
"i  c #5C3007",
"p  c #6B2C0C",
"a  c #652608",
"s  c #752A08",
"d  c #68370A",
"f  c #763205",
"g  c #642C12",
"h  c #622E1A",
"j  c #6A2D17",
"k  c #6C3415",
"l  c #64341D",
"z  c #6C331B",
"x  c #663718",
"c  c #72361B",
"v  c #753A1C",
"b  c #7B3C1B",
"n  c #773614",
"m  c #722A14",
"M  c #4C2C24",
"N  c #472926",
"B  c #542C25",
"V  c #532D2B",
"C  c #5A2D22",
"Z  c #4B3529",
"A  c #543225",
"S  c #5C3224",
"D  c #54342C",
"F  c #5B342B",
"G  c #59392A",
"H  c #5A3532",
"J  c #553933",
"K  c #5A3A33",
"L  c #563535",
"P  c #513233",
"I  c #633423",
"U  c #6B3922",
"Y  c #62352A",
"T  c #653A2C",
"R  c #6C3E2C",
"E  c #663824",
"W  c #7C3E23",
"Q  c #743B25",
"!  c #623A31",
"~  c #763F38",
"^  c #384910",
"/  c #3F482A",
"(  c #4A481D",
")  c #47561C",
"_  c #514811",
"`  c #664718",
"'  c #77461D",
"]  c #554824",
"[  c #5A4638",
"{  c #4E522A",
"}  c #68432A",
"|  c #7C4225",
" . c #7C442A",
".. c #784629",
"X. c #694535",
"o. c #7A4935",
"O. c #775336",
"+. c #6D572C",
"@. c #526228",
"#. c #5C6A3A",
"$. c #546B37",
"%. c #676636",
"&. c #647639",
"*. c #736539",
"=. c #5B5242",
"-. c #666A45",
";. c #766846",
":. c #687748",
">. c #767949",
",. c #797757",
"<. c #707154",
"1. c #646A46",
"2. c #843C1A",
"3. c #8C3A0A",
"4. c #883A22",
"5. c #8A461B",
"6. c #93461C",
"7. c #96471A",
"8. c #9C531E",
"9. c #854524",
"0. c #8B4523",
"q. c #8D4924",
"w. c #83452A",
"e. c #83492D",
"r. c #8C4C2B",
"t. c #874828",
"y. c #924522",
"u. c #934B23",
"i. c #924C2C",
"p. c #974A2B",
"a. c #8A552C",
"s. c #93532B",
"d. c #9A5427",
"f. c #834B33",
"g. c #864C37",
"h. c #974F33",
"j. c #8C5233",
"k. c #84513C",
"l. c #8C543A",
"z. c #875434",
"x. c #955538",
"c. c #A35728",
"v. c #A75737",
"b. c #B65B35",
"n. c #916C36",
"m. c #B86537",
"M. c #A66634",
"N. c #C66739",
"B. c #D77339",
"V. c #CC6333",
"C. c #F17E3C",
"Z. c #895842",
"A. c #837A54",
"S. c #93704B",
"D. c #B9754B",
"F. c #B87754",
"G. c #AD6E4B",
"H. c #9E6C52",
"J. c #CC6C42",
"K. c #CA7448",
"L. c #D97642",
"P. c #D57D51",
"I. c #C67A57",
"U. c #E6774B",
"Y. c #F57E44",
"T. c #E07A52",
"R. c #658C46",
"E. c #668D4A",
"W. c #6B8D4B",
"Q. c #678846",
"!. c #728C4B",
"~. c #75824B",
"^. c #66924B",
"/. c #6C924D",
"(. c #699348",
"). c #71914E",
"_. c #71994D",
"`. c #6D8E52",
"'. c #6D8555",
"]. c #728D53",
"[. c #788957",
"{. c #6D9352",
"}. c #6C9754",
"|. c #729453",
" X c #759955",
".X c #7B945C",
"XX c #7B9A5C",
"oX c #789557",
"OX c #7B9665",
"+X c #7C8E61",
"@X c #F8853E",
"#X c #878757",
"$X c #948459",
"%X c #908F54",
"&X c #AE8859",
"*X c #998868",
"=X c #829B63",
"-X c #849664",
";X c #948E6F",
":X c #AC9967",
">X c #A69474",
",X c #B18965",
"<X c #B2A970",
"1X c #86A063",
"2X c #CA855B",
"3X c #D98858",
"4X c #D4834A",
"5X c #ED834D",
"6X c #E7864C",
"7X c #F58344",
"8X c #FB8444",
"9X c #F5844B",
"0X c #FB844A",
"qX c #F58A4C",
"wX c #FC8A4C",
"eX c #F98A45",
"rX c #ED8C5A",
"tX c #E98654",
"yX c #F48554",
"uX c #FD8651",
"iX c #F48B53",
"pX c #F28D5C",
"aX c #FC8B53",
"sX c #EC935A",
"dX c #F3915A",
"fX c #D28E65",
"gX c #EB9365",
"hX c #E69567",
"jX c #F69262",
"kX c #E68B64",
"lX c #CDB275",
"zX c #F0D57D",
"xX c #D7C67E",
"cX c #B6A786",
"vX c #CAB987",
"bX c #D7C788",
"nX c #DAD092",
"mX c #E2CD8A",
"MX c #F7DA8A",
"NX c #F7DB95",
"BX c #EAD094",
"VX c #FCE18A",
"CX c #F9E398",
"ZX c #DCD3A6",
"AX c #FCDDA5",
"SX c #E4DBA6",
"DX c #FCE8A4",
"FX c #FDF3A6",
"GX c #FCE7B6",
"HX c #FFF1BB",
"JX c #EEE4B3",
"KX c #FFF8C8",
"LX c #FFEFCE",
/* pixels */
"|.W.}.}.^./.{.oX'.* $.[.'.OX+X-X+X+X=X.XOXOX}.|.`.^.(.(.!.).!.oX]./.).).(.)._.)././.{././././._././.",
"!.).^./.}.^.`.].>.- - - : < , : , , _ ( ( $.~.].OXOX).).(.(.oXW./.{./././.(.(././././.{././././././.",
"^.{. X/.E.{.{.OX%.O...| ..| x + u E u d i 6 X - 1 :.].oX{.^.E.}./.)./.^.(./././././.|.W./././.^././.",
"^.}.!.!. XE..X~.6 F.v.s u.y.x.r.8 j.r.r.u.s.u > Z X - :.XX}.^.(.{././././.(././././.{./././././.)./.",
"(._.!.!.).W.#X: d.hXkX3.5.5.0.i.b 3 u.5.u.t.} % q } 0 . , +XXXQ././././././.(./.)./.W.|././././././.",
").!.oX!.!.%X_ n gXtXrXm.s d.u.0.s.a p i.q.j.E $ e f.Z.r @ @ :..X`.`.{././.(./.(././.|./.`./././.)./.",
"(.W.(.W.=X%.6 sXtXqXqX6Xs 2.5.u.5.r.8 w.t.a k Q 3 o.g.R h } O &.].]././.(.}.(././.W.)./././././.(.).",
"/.(.(.).oX; D.dX5X7X7XaXc.s p.y.u.0.x 6 a 0.p.r.8 x Q j a k.X.@ [.`.`./.}.(.^./.)./.].).).{././././.",
"_./.^.oX] ' sXqXeX@X7X5XtX3.4.4.q.t.E + w.p.0.h.u $ i ..k e O.0 X ].]..XE.^._./.).W.).!.W.E.).^./.).",
"E.}._.~.7 I.tXeX@X@XeX9XaXb.a g.x.c x z p i.p.r.8 6 a.O...7 g ..O : .X~.]. X/./.W.}.|.|.|. X/.}././.",
"{.!.=X_ 0.jXY.Y.7X7XeX7XuXU.a ~ j v a.' 8 f. .g U 7 o.O.} + b s.y @ { -X].|.Q./._.E.W.W.W././.^././.",
"}.|.~.9 P.Y.U.U.wX7XeXeXY.pX4.g z w.0.s.g e g | x.8 E l u 6 2.s.u A - <.[.|./.^././. X|.|.W././././.",
"^.XX$.` sX@XJ.U.wXC.8XeX@XaXG.3 w.p.4.h.Q 5 r.5.4.4.4 C e.n a s.I 0 ] y [.].|.^.E._./.Q.{.|./././.).",
"W.oX_ M.sX@XV.J.uX8XeX@X@XiXP.a 0.y.4.h.h 8 9.q.p.4.5 Z.h.b a a.g.4 O.- -..X`.{. XE.E.oXW./.{.W././.",
"oX&.i hX@XtXm.G.wX8XeX7X8X0X3X2.2.r.p.n k g k s.4.n 8 g.9.0.a e.g.4 S , : -XXXE.{.E. XXX|.E._././.).",
".X+.5.qX6XrXb.v.qX8X7X0X8X8XdX7.k l.b b j.v d 9.s u.k Q i.i.3 o.~ 2 2 } @ #.].{.W.XXQ.^ ].].).^././.",
"oX_ m.9XY.J.G.v.qX@X0X0X7X7XaXm.w T k 9.h.w.3 g 0.p.k b 0.a.I 4 4 2 p l.0 * .X/.}.`.- ] * '. X(.(./.",
"!._ 4X9XpXJ.h.p.5XeXY.0X9X7XaXJ.8 I 2.i.0.x.3 z i.q.n k j.e.$ $ X.U n e.! o #..XXX= #XLX,.* Q.oX/._.",
"*.` rXY.pXP.w.4.L.eXY.0X@XeXuXT.p Q i.y.0.W 4 I j.t.9.h l + $ r x.n p x.X.@ ^ -X-.^ GX:XSX;X= XX|./.",
"*.' rXuXrXhXx.m N.5XwXY.@X8XY.rXs 9.0.u.0.g U t e.t.o.8 + U X.w j.2.a Z.0 ; - [.: <X<X%XFXHX{ @..XE.",
"` n.sXdXc.F.fXj p.rXyX0X8X@XY.aX2.W 0.i.v U Z.3  .z.h + Q z...e a.' 8 4 $ 0 - ( +.SXn.lXCXFXbX: oX).",
"` M.dXm.n H.E 3 3 3XyX0X8X8XY.uX2. .r.n v f.O.q Q 7 5 7 r.t.o.e z.8 + B O.u T $ S.<Xn.CXMXVXDX_ &.oX",
"f &XhXu.S.LXBX,Xd G.pX0XY.0X7XrXw.E W p 9.j.f.l + 7 j.a b a.k.7 5 8 g l.k.7 o.$ ; ,.$XCXMXMXDX%X) oX",
"f 2XhX2.H.cXHXHX:X .rX0X7X0X7XrXw.e g t.u.9.l.4 $ o.j.a ' l.E + ..a.n | f.w o.t - <.*.BXCXMXNXbX^ oX",
"f fX3Xr.;XcXKXKXZXg gX7X8X@X7XrXt.e b q.u.t.l 2 4 g.z.i  .h 2 0 e.q.p t.k.q h 0 o <.; vXCXVXVXCX) W.",
"f hXK.x.>.A.KXKXLXx 4X0X@X@X@XrX9.w t.q.y.5.7 } 2 o.f.k 3 e o.7 | e.g f.t 5 w o.X / -.$XCXMXMXFX&.&.",
"3.hXF.Z.;.%.ZXHXKXv L.wX@X8XeXpX| g 2.r.9.8 w.f.4 T k.g 8 o.k.7 4.f.3 q I r Q O.& A.;X#XmXVXDXnX^ R.",
"7.gXI.S.<./ nXCXGX' B.aX8X7X8XpXW e Q e.8 n h. .2 X.f.g k  .f.w  .8 $ } Z.I R t % A.>X;XxXCXbX- ^  X",
"3.gXD.H.X.; BXNXAXs.L.uX0X0X8XqXb r F E k s.0.e.0 I e.b c | j.a 3 j g O.l.g 5 r $ ;.>XA.lXZXo / XXQ.",
"7.kXF.F.<.O nXNXAXc.L.wX0X0X7XtXj F F I h.5.q.r.r S b q.| o. .5 k x.k f.Q + g Z.& X.>XH.:X;.^ -.=X}.",
"3.gXG.,X>X@ nXNXNXM.6X0XeX@X0XT.h D S e.u.7.6.t.h l 0.r. .Q 0 5 j.9.U 7 $ 4 e. .> P cX-X;X;.bX6 ^ '.",
"3.3XD.,X*X; mXNXNXc.iX9X7X7XwXK.t K r e.t.u.q.n c r.0.u.g.h 0 t r.q.k I X.B O.t N 1 A.;XA.;.BXNX>.< ",
"f hXF.&X*Xy mXDXlX8.yX0XY.yXdXm.7 K F } Z. .c b q.y.6.y.t.Q h r r.0.v k.~ B o.$ V 0 *X*XA.S.lXDXKX,.",
"d 2X2Xx.cX%.nXDX&Xc.aX0XuXU.iX8.e A F T Y l W r.6.7.6.6.t.e.U r l.W Q  .! V A 6 D J >X;.:X<XNXNXGX>.",
"d 2X3Xd.,X*XvXvXM.m.qX0XuXyXsX3.w Y Y C j W r.y.6.7.7.u.i.f.T S ~ z h Y Y V % V > ;.A.:XNXmXMXNXJX#.",
"x S.hXc.,X;X$X:Xn.P.qXeX0XyX3Xs l S r U  .r.u.6.7.6.6.u.g.} I A C C F H H H N L > A.<XAXNXMXVXMXZX/ ",
"] a.sXm.a.*X>X$X5.6X9X0XY.pXK.a I S I W r.q.5.7.7.7.u.t. .I B B F F G Z F B L L Z >X<X:XzXMXzXVX<X^ ",
"&._ 3X6Xf i u 3 m.iX7X0X9XpXv.t I S ~ e.t.8.7.7.6.7.t.| E F B V D F Z Z G B L % { <.;.$XNXMXzXFX@.&.",
"`.: 3XrXgXfXU p dXaXY.9XY.rXQ C ! B U o.t.u.6.u.y.r.| U I Y V F F F D G X.G D .   <   ;.DXNXFX<X^ /.",
"OX_ m.jX6XK.h.m.iX@XwX0XyXP.g V F F I h W r.9.r.r...U C F V H F S u A A X.T > . <.OX:.* lXFXBX^ &.oX",
"oX%.5.jX6XqXm.m.qX8X0X7XpXb.w H H V Y E j z Q ....r S F B ! F S l I T D % N X / OX^.=X@.^ ZX( ) OX{.",
"W.#X6 3X9X@XV.V.wX8XY.9XkX4.h B H H V C I r r u A G D K H B F F o.r B N L P X [.}.}.E. X) - { -X].{.",
"!.#X_ s.dXaX@XB.wXY.8XpXI.3 T F J L H D F F S G D D P D K V F Y C 4 P P J X { OX}.^.^.(.oX.X.X`.].`.",
"(.oX>.; 3XqXqXeX8XY.0XpXi.t F F D D D D D F D D J P J P H F C F B V J P & 1 -XW.^.^.^.(./.`.W.`.`.`.",
"_.Q.1X@.i hX6XqXY.wXyXP.w ! V D D N N K D D N 0 Z N P M % M F G V L Z   < +XXXW.{.E.^././.(.).(./.{.",
"/.W.`.%X9 5.hXtXuX9XpXd.w H D J P 0 A D K D H M & B 0 % ! J M J =.N o < [.].W.{.{.{.}.^.^.^._.(./.{.",
"_.E.}.`.].- x.kXuX9XK.p I B K D 0 M A B D D K F F D 0 N P K J P X * $.OXE._.(.].`.].`.|.E. XE.W././.",
"R.}.{.^. XoX$ | hXgXe.7 Y H Z N M K D D D K M M D G [ K Z > X X { '. XE.(.(.E.|.`.|.`.|./.Q. X/.{./.",
"(.).W.}.W.oX[._ ; E u D J D N P J J K J J N N Z P 1 & * * 1 $.[..X].W././././.).)./.).{./././././.).",
"(.|./.{.{.E.{.OX[ . # O & . O & & O # O # # # & # & 1 =.'.OXOX}. X/.^.W././././././././.)./././././."
};
