/* XPM */
static char *image__7___1_1670773812[] = {
/* columns rows colors chars-per-pixel */
"50 50 231 2 ",
"   c #2A1A0E",
".  c #39190B",
"X  c #381A14",
"o  c #3A2818",
"O  c #3A361D",
"+  c #371D24",
"@  c #392825",
"#  c #4D160D",
"$  c #46190C",
"%  c #4B1A0E",
"&  c #5C1F07",
"*  c #541C0B",
"=  c #5E1C0C",
"-  c #451812",
";  c #4C1C12",
":  c #4B1D1A",
">  c #581C15",
",  c #671D0A",
"<  c #731E0A",
"1  c #681E16",
"2  c #52230D",
"3  c #5D210C",
"4  c #412314",
"5  c #492916",
"6  c #472C1C",
"7  c #5B2414",
"8  c #552718",
"9  c #5A341B",
"0  c #6C2406",
"q  c #6D2C06",
"w  c #66240D",
"e  c #6B230B",
"r  c #6D2A0C",
"t  c #702C07",
"y  c #7B2A05",
"u  c #74240B",
"i  c #7B250B",
"p  c #73280C",
"a  c #7B2A0B",
"s  c #74320B",
"d  c #632513",
"f  c #6D2515",
"g  c #662817",
"h  c #6D2B13",
"j  c #632A1A",
"k  c #6A2C1A",
"l  c #732414",
"z  c #7D2511",
"x  c #742B13",
"c  c #7B2B12",
"v  c #772619",
"b  c #6C331A",
"n  c #683619",
"m  c #733215",
"M  c #7D3414",
"N  c #72331B",
"B  c #763B1A",
"V  c #5B1F22",
"C  c #4A2924",
"Z  c #542B24",
"A  c #463C23",
"S  c #493827",
"D  c #543423",
"F  c #5A3929",
"G  c #602F20",
"H  c #693728",
"J  c #783A25",
"K  c #7B470C",
"L  c #66421E",
"P  c #7A421B",
"I  c #4B462A",
"U  c #56462A",
"Y  c #51542F",
"T  c #474934",
"R  c #534733",
"E  c #545334",
"W  c #555B34",
"Q  c #5D5C35",
"!  c #5E5738",
"~  c #545D3C",
"^  c #6A4222",
"/  c #67472A",
"(  c #76432B",
")  c #774828",
"_  c #66592F",
"`  c #684A35",
"'  c #754D33",
"]  c #665436",
"[  c #625C35",
"{  c #6A5A33",
"}  c #765737",
"|  c #576337",
" . c #5C643B",
".. c #5D6A3D",
"X. c #696235",
"o. c #626339",
"O. c #69643C",
"+. c #646C3C",
"@. c #74633E",
"#. c #63733E",
"$. c #6D793F",
"%. c #534C47",
"&. c #5A5846",
"*. c #685846",
"=. c #7A5941",
"-. c #566543",
";. c #5B7346",
":. c #5B745D",
">. c #656C41",
",. c #6C6A42",
"<. c #6C694A",
"1. c #726A43",
"2. c #637543",
"3. c #6B7444",
"4. c #657B44",
"5. c #6A7C45",
"6. c #69774A",
"7. c #6C7E49",
"8. c #737748",
"9. c #676F55",
"0. c #776753",
"q. c #627A53",
"w. c #747655",
"e. c #7A7867",
"r. c #8B2C06",
"t. c #83250C",
"y. c #842B0B",
"u. c #88280B",
"i. c #8C2C0B",
"p. c #942E06",
"a. c #992D06",
"s. c #92270C",
"d. c #942D0B",
"f. c #9B2D0C",
"g. c #8A330B",
"h. c #933205",
"j. c #9B3305",
"k. c #94320B",
"l. c #9B330C",
"z. c #862713",
"x. c #852B13",
"c. c #8C2B13",
"v. c #932B11",
"b. c #972B12",
"n. c #873617",
"m. c #8B3314",
"M. c #843C1B",
"N. c #8D3B1B",
"B. c #953312",
"V. c #983818",
"C. c #A32E09",
"Z. c #A3320B",
"A. c #AA360B",
"S. c #B6390E",
"D. c #A93612",
"F. c #B53713",
"G. c #8A3E24",
"H. c #C2390C",
"J. c #92490B",
"K. c #8D4E14",
"L. c #9B471C",
"P. c #A94807",
"I. c #B1520E",
"U. c #A9441D",
"Y. c #AA4A1C",
"T. c #B0491A",
"R. c #AD680D",
"E. c #864428",
"W. c #8C4C2D",
"Q. c #964728",
"!. c #825322",
"~. c #874A33",
"^. c #9A4F30",
"/. c #865639",
"(. c #9C5A34",
"). c #A44A23",
"_. c #A94B27",
"`. c #BB4C2D",
"'. c #AC5322",
"]. c #A6552B",
"[. c #AB542B",
"{. c #B7562A",
"}. c #AB5532",
"|. c #A55937",
" X c #AE5B34",
".X c #A55438",
"XX c #B55A34",
"oX c #B55B37",
"OX c #AC623B",
"+X c #BA633A",
"@X c #C57608",
"#X c #C45C2B",
"$X c #C6672E",
"%X c #C16635",
"&X c #D4763E",
"*X c #865944",
"=X c #935F42",
"-X c #A15740",
";X c #B06846",
":X c #887A6A",
">X c #CB774B",
",X c #D5764C",
"<X c #D67B48",
"1X c #E37852",
"2X c #5C8045",
"3X c #648247",
"4X c #6B8347",
"5X c #65844A",
"6X c #6B8549",
"7X c #6D8D4C",
"8X c #71854A",
"9X c #728948",
"0X c #6E914D",
"qX c #71944E",
"wX c #75994F",
"eX c #789D4F",
"rX c #6E8256",
"tX c #769B50",
"yX c #7A9D51",
"uX c #7CA251",
"iX c #AA810C",
"pX c #C88C0B",
"aX c #CCA70B",
"sX c #80A652",
"dX c #88866B",
"fX c #918C76",
"gX c #978882",
"hX c #9D9786",
"jX c #AFAAA5",
"kX c #B6B3AA",
"lX c #C3BBBA",
/* pixels */
"0X0X0X0X0X0X0X0X0X0X0X0X0X0X0X0X0X0X0X0XuXuXqX0X0X0X0X0X0X0X0X0X0X0X0X7X7XqX0X0X0X0X0X0X0X0X0X0X0X0X",
"0X0X0X0X0X0X0X0X0X0X0X0X0X0X0X0X0X0X0XwXeXuXeX0X0X0X0X0X0X0X0X0X0X0X0X7X>.3.0X0X0X0X0X0X0X0X0X0X0X0X",
"0X0X0X0X0X0X0X0X0X0X0X0X0X0X0X0X0X0X0XwXuXuXwX0X0X0X0X0X0X0X0X0XqX0X7.O.` =.,.+.+.>.6X0X0X0X0X0X0X0X",
"0X0X0X0X0X0X0X0X0X0X0X0X0X0X0X0X0X0X0X0XeXuX0X0X0X0X0X0X0X0X0X0X6X6.@.) G.|.' ^ ) / 3.0X0X0X0X0X0X0X",
"0X0X0X0X0X0X0X0X0X0X0X0X0X0X0X0X0X0X0X0XwXqX0X0X0X0X0X0X0X0X0X3X1.{ W.{.Q.%X.XL.].!.3.7X7X0X0X0X0X0X",
"0X0X0X0X0X0X0X0X0X0X0X0X0X0X0X0X0X0X0X0X0X0X0X0X0X0X0X0X0X0X3X_ } ^._.#XU.#XXX'.$XW.8.qX0X0X0X0X0X0X",
"0X0X0X0X0X0X0X0X0X0X0X0X0X0X0X0X0X0X0X0X0X0X0X0X0X0X0X0X0X7X..L ).#XY.U.L.{.).{.XX~.8.7X0X0X0X0X0X0X",
"0X0X0X0X0X0X0X0X0X0X0X0X0X0X0X0X0X0X0X0X0X0X0X0X0X0X0X0X0X3X| E.#X{.Y.N.V.U.V.).].~.1.qX0X0X0X0X0X0X",
"0X0X0X0X0X0X0X0X0X0X0X0X0X0X0X0X0X7X0X0X0X0X0X0X0X0X0X0X7X2X| Q.{._.G.x h k x x b B *X8X0X0X0X0X0X0X",
"0X0X0X0X0X0X0X0X0X0X0X7X6X9X6X7X7X7X7X0X0X0X0X0X0X0X0X0X0X3X[ E.#XG.l 0 0 , w w 3 t.Q.1.7X0X0X0X0X0X",
"0X0X0X0X0X0X0X0X0X0X0X4.W W E Y Y W q.7X0X0X0X0X0X0X0X0X7X+.` M.'.c u y u.c.i.y.y.a.k.{ 7X0X0X0X0X0X",
"0X0X0X0X0X0X0X0X0X0X0X| o 5 6 o o C R >.6X0X0X0X0X0X0X0X4X` G.Q.K.w y h.f.A.A.l.h.a.l.) 5.0X0X0X0X0X",
"0X7X0X0X0X0X0X0X0X0X7X| 2 r r 0 0 0 7 F [ 7.0X0X0X0X0XqX<.H }.`.m e y.d.B.i.p.k.A.C.Z.B.X.0X0X0X0X0X",
"0X0X0X0X0X0X0X0X0X7X#.Q Q.'.Y.I.T.'.N.j 6 E 4X7XqXtX0X8X*XQ._.D.h < u.z.g j q s k.D.A.c.U o.+.5.0X0X",
"0X0X0X0X0X0X0X0X0X4.I ^ .XOX[.{.XXXXL.r 7 D Q 7XwXuXtX1.~._.M.x f u p i.M s K K M Z.f.z C k N } 3.6X",
"0X0X0X0X0X0X0X0X0X..6 n ].(.|. X[.}.^.E.n.h R 4X9X9X7.{ G.L.h d l r q h.P.R.iXR.P y.i.f 1 u.y.H U 5.",
"0X0X0X0X0X0X0X0X0X4.I ' ;X>X>X&X%X}.XX XU.t.9 2.+.` ' W.'.g.a z i u u g.I.pXaXpXJ.y i.z x.x.f e n #.",
"0X0X0X0X0X0X0X0X0X7X6.0.;X1X1X<X,X}.}.}._.m.8 Q [ ) Q.N.'.y.r.d.y u u y P.@XaXpXJ.u b.v.v.z V u n #.",
"0X0X0X0X0X0X0X0X0X0X6.%.( {.}.[. X+X%X X|.Q.u U ] W.[.x M a d.B.y i u y p.P.R.I.g.j c.V.V.G.v u.n #.",
"0X0X0X0X0X0X0X0X0X7X~ O n ]._.^. X<X<X;X/.H l G I G m u a i.d.g.r.t.u u p.j.A.j.L ..' =X=X~.x s.B $.",
"0X0X0X0X0X0X0X0X0X7X~ O / /././.*X*X/.0.*.o > g o > z i.k.f.f.h.d.t.u i i.d.s.0 9 rX0.:X:Xw.` J { 9X",
"0X0X0X0X0X0X0X0X0X0X;.W &.1.,.<.0.&.C &.=.v v k 8 x.v.B.k.f.l.l.i.i u u a u.t.# X <.gXjXjXdXw.[ 8XwX",
"0X0X0X0X0X0X0X0X0X0X0X7X7XyX9XsXw.*.f k n.H.D.v c.b.b.c.u.a.i.s.i u u q r y < # . ] hXlXkXhXw.w.eXwX",
"0X0X0X0X0X0X0X0X0X0X0X0XqXtX8X8.' M.A.D.Z.S.C.c.v.b.B.a , u.i i < ; * 2 2 3 * X * ' 0.hXhXfXw.qXqXwX",
"0X0X0X0X0X0X0X0X0X0X0X0X0X7XX.P b.S.H.P.l.Z.s.z x.d.k.y 3 l 0 & > n 9 d X   . . - f F e.dX9.6X0X0X0X",
"0X0X0X0X0X0X0X0X0X0X0X0X7X3.) l.F.S.A.A.k.d.x.e u c.b.r.2 : g b K.'.K.b S O O 6 . # Z e.:X&.6X0X0X0X",
"0X0X0X0X0X0X0X0X0X0X0X0X7.' B.S.D.a.a.C.a.r.z 3 f x.b.d.d @ J OXoX].!._ >.#.#.| A 4 : ` 0.*.5X0X0X0X",
"0X0X0X0X0X0XwX0X0X0XqX6X{ m.Z.Z.d.d.f.f.d.a e # w c i.f.p Z ^.OX|.' [ 5.6XqX0X7X2.U - = J ` 5X0X0X0X",
"0X0X0X0X0XwXeXeXqX0X9X,.M.j.C.k.j.a.f.c.t.u , $ 3 p x.a.y.n ~.` ] ,.6X0X0X0X0X7XtX4XU 3 < H 3X0X0X0X",
"0X0X0X0X0XuXuXuXeX0X3.( B.j.a.d.d.l.s.t.u w * - * r u r.i.Z ` O.3.4X7X0X0X0X0XqXuXwX+.2 j ] 7X0X0X0X",
"0X0X0X0X0XuXuXuXeX4X{ n.l.j.d.a.f.i.a < , * - X . 3 u y.s.Z o.6X7X0X0X0X0X0X0XqXuXeXqXQ ] 5.0X0X0X0X",
"6X7X7X7X7XqXwXwX$.{ J C.d.d.l.h.s.i f , = # - C F 2 d c t.k ! o.5.7X0X0X0X0XqX7XwXuXwX5.5.0X0X0X0X0X",
"1.X.X.o.[ _ X.X.) M b.j.h.b.f.h.k.t.d , # : N ~.(.D : u i u h n ] >.7X7X0X0X0X0X0XtX0X0X0X0X0X0X0X0X",
"( m ) H n s s b M.j.Z.i.g.x.u.p.k.s.0 - - Z ;X<X$XH X , < u a c j / O.4X0X7X0X0X0X0X0X0X0X0X0X0X0X0X",
"J m.S.m.p r.C.l.l.l.B.c.1 8 u s.a.d.d X J ^.,X>X^./ A $ $ ; 5 q v v H O.7X0X0X0X0X0X0X0X0X0X0X0X0X0X",
"} ~.V.n.x a u.f.f.B.y.c : : l y.d.k.l 6 .XXX_.W./ X.| I A A I 9 l 1 H ] 4X0X0X0X0X0X0X0X0X0X0X0X0X0X",
"6X,.' ( J b w w l i w 3 8 > v x y.j.c.b W.~./ ` 2.9X6X#.#.#...I 8 D R ~ 4.0X0X0X0X0X0X0X0X0X0X0X0X0X",
"0X6X6.=.` ( N j g x 7 9 G.k V e t r.C.x.9 ! +.4.0X0X0X0XqXqX0X| I E T &. .7X0X0X0X0X0X0X0X0X0X0X0X0X",
"0X0X7X7.8.1.( J B M B B Q.H + # 2 p f.y.I #.0X0X0X0X0X0X0X0X0X;.Y  .~ ~ ~ 5X0X0X0X0X0X0X0X0X0X0X0X0X",
"0X0X0X0X0X7.<.} ^ ( ^ / L S @   o w y.7 I 5X0X0X0X0X0X0X0X0X0X0X4...4.4.;.7X0X0X0X0X0X0X0X0X0X0X0X0X",
"0X0X0X0X0X0X6X6.,.>.>.-...| ~ O # u g D  .7X0X0X0X0X0X0X0X0X0X0X7X3X7X0X0X0X0X0X0X0X0X0X0X0X0X0X0X0X",
"0X0X0X0X0X0X0X0X7X7X0X7X7X7X..D , f 6 E 5X0X0X0X0X0X0X0X0X0X0X0X0XwX0X0X0X0X0X0X0X0X0X0X0X0X0X0X0X0X",
"0X0X0X0X0X0X0X0X0X0X0X0X0X3XE 8 8 4 T ;.0X0X0X0X0X0X0X0X0X0X0X0X0XuXuX0X0X0X0X0X0X0X0X0X0X0X0X0X0X0X",
"qX0X0X0X0X0X0X0X0X0X0X0X7X-.Z : Z T -.0X0X0X0X0X0X0X0X0X0X0XqXuXeXuXuX0X0X0X0X0X0X0X0X0X0X0X0X0X0X0X",
"0X0X0X0X0X0X0X0X0X0X0X0X5XT C 8 S ;.0X0X0X0X0X0X0X0X0X0X0X0XqXuXuXuXuX0X0X0X0X0X0X0X0X0X0X0X0X0X0X0X",
"qX0X0X0X0X0X0X0X0X0X0X0X5XO 8 Z O ;.0X0X0X0X0X0X0X0X0X0X0X0XqXuXuXuXuX0X0X7X0X0X0X0X0X0X0X0X0X0X0X0X",
"0X0X0X0X0X0X0X0X0X0X0X0X3XT Z Z %.&.0X0X0X0X0X0X0X0X0X0X0X0XqXuXuXwXwX0X0X0X0X0X0X0X0X0X0X0X0X0X0X0X",
"0X0X0X0X0X0X0X0X0X0X0X7X5X-.&.%.&.-.7X0X0X0X0X0X0X0X0X0X0X0XqXuXuX0X0X0X0X0X0X0X0X0X0X0X0X0X0X0X0X0X",
"0X0X0X0X0X0X0X0X0X0X0X7X;.;.:.:.:.q.7X0X0X0X0X0X0X0X0X0X0X0X0XtX0X0X0X0X0X0X0X0X0X0X0X0X0X0X0X0X0X0X",
"0X0X0X0X0X0X0X0X0X0X0X7X-.-.q.rXq.q.0X0X0XqX0X0X0X0X0X0X0X0X0X0X0X0X0X0X0X0X0X0X0X0X0X0X0X0X0X0X0X0X"
};
