/* XPM */
static char *image__8___1_1670775452[] = {
/* columns rows colors chars-per-pixel */
"50 50 240 2 ",
"   c #27150B",
".  c #34130C",
"X  c #3A150D",
"o  c #3A1A16",
"O  c #3A261B",
"+  c #392A2B",
"@  c #47170A",
"#  c #4C190C",
"$  c #531B0B",
"%  c #571809",
"&  c #5A1B0B",
"*  c #471A13",
"=  c #421C19",
"-  c #561C15",
";  c #671C07",
":  c #641D0C",
">  c #761D0C",
",  c #651E13",
"<  c #751C15",
"1  c #4E220C",
"2  c #5B240C",
"3  c #482417",
"4  c #46231B",
"5  c #5C2514",
"6  c #562916",
"7  c #55251B",
"8  c #5C2219",
"9  c #5C2A1B",
"0  c #59321B",
"q  c #64230C",
"w  c #6A2709",
"e  c #6B230C",
"r  c #7B2506",
"t  c #7C2B06",
"y  c #74250C",
"u  c #7C230B",
"i  c #74290C",
"p  c #7C2B0D",
"a  c #6D300C",
"s  c #79340E",
"d  c #642615",
"f  c #6C2513",
"g  c #6B2A13",
"h  c #6C2C1C",
"j  c #712313",
"k  c #772816",
"l  c #7C2D13",
"z  c #64331E",
"x  c #69331A",
"c  c #7C3213",
"v  c #783617",
"b  c #74321A",
"n  c #492B24",
"m  c #562A24",
"M  c #49382B",
"N  c #573727",
"B  c #4D3636",
"V  c #4E3737",
"C  c #672E23",
"Z  c #752921",
"A  c #683625",
"S  c #763727",
"D  c #6E3D33",
"F  c #723D34",
"G  c #744317",
"H  c #4D432C",
"J  c #4F4536",
"K  c #544838",
"L  c #5D513D",
"P  c #6D4329",
"I  c #77482A",
"U  c #674934",
"Y  c #774935",
"T  c #64573A",
"R  c #7A5639",
"E  c #6F643C",
"W  c #554743",
"Q  c #495443",
"!  c #585947",
"~  c #555550",
"^  c #665A44",
"/  c #7A5A45",
"(  c #615250",
")  c #5C654C",
"_  c #576253",
"`  c #66654B",
"'  c #796546",
"]  c #74644B",
"[  c #736B4C",
"{  c #786B4E",
"}  c #6D6354",
"|  c #6B6D53",
" . c #756753",
".. c #796C53",
"X. c #677656",
"o. c #6B735C",
"O. c #7C7552",
"+. c #76725B",
"@. c #727C5C",
"#. c #7A7959",
"$. c #6B6463",
"%. c #7B7662",
"&. c #757775",
"*. c #842B06",
"=. c #8C2B06",
"-. c #83250C",
";. c #88260A",
":. c #842B0B",
">. c #8C2C0B",
",. c #942E07",
"<. c #9A2D06",
"1. c #952D0B",
"2. c #9B2D0B",
"3. c #86330A",
"4. c #8D320A",
"5. c #943105",
"6. c #93320B",
"7. c #9C330B",
"8. c #983708",
"9. c #882714",
"0. c #832A13",
"q. c #8C2C12",
"w. c #942C11",
"e. c #9A2B11",
"r. c #833313",
"t. c #8B3314",
"y. c #873A1D",
"u. c #9D3214",
"i. c #933A15",
"p. c #913F1D",
"a. c #A32B0D",
"s. c #A82C08",
"d. c #B02F0F",
"f. c #A73709",
"g. c #A3330C",
"h. c #B8380B",
"j. c #A33815",
"k. c #893C26",
"l. c #963923",
"z. c #8B4D10",
"x. c #97451C",
"c. c #9C441C",
"v. c #AA450B",
"b. c #A8590A",
"n. c #A74918",
"m. c #B0710E",
"M. c #864726",
"N. c #9A4727",
"B. c #8C522C",
"V. c #93532C",
"C. c #894736",
"Z. c #974F35",
"A. c #855639",
"S. c #9C5433",
"D. c #995839",
"F. c #AA4A26",
"G. c #B54B24",
"H. c #A7532A",
"J. c #B85829",
"K. c #A85835",
"L. c #B55735",
"P. c #B35B36",
"I. c #AD6238",
"U. c #B7663A",
"Y. c #BC633C",
"T. c #B5703F",
"R. c #CA7811",
"E. c #C45C2C",
"W. c #C95B2B",
"Q. c #CF5F38",
"!. c #C7673A",
"~. c #C46A3E",
"^. c #D66B38",
"/. c #D8733B",
"(. c #835942",
"). c #945C40",
"_. c #AB5F43",
"`. c #866446",
"'. c #916B51",
"]. c #867557",
"[. c #AB6243",
"{. c #B76846",
"}. c #BC6A42",
"|. c #AD6C52",
" X c #B67154",
".X c #837E64",
"XX c #C86A44",
"oX c #D16C45",
"OX c #C77548",
"+X c #DB7848",
"@X c #DC7A51",
"#X c #E47C47",
"$X c #E87D57",
"%X c #DE7E61",
"&X c #6F834F",
"*X c #6E914D",
"=X c #70924F",
"-X c #6C8352",
";X c #6E8C53",
":X c #6D885A",
">X c #778757",
",X c #728C55",
"<X c #74825C",
"1X c #7B855C",
"2X c #748D5B",
"3X c #7A8B5D",
"4X c #6F9252",
"5X c #729353",
"6X c #74925B",
"7X c #7A945D",
"8X c #7A995D",
"9X c #6C8067",
"0X c #748C62",
"qX c #778867",
"wX c #7C8B63",
"eX c #7B9462",
"rX c #789564",
"tX c #7A9863",
"yX c #B3890E",
"uX c #CB9610",
"iX c #D1A611",
"pX c #85845D",
"aX c #80925D",
"sX c #828E68",
"dX c #86976B",
"fX c #838E76",
"gX c #8B9873",
"hX c #DE824A",
"jX c #E8814C",
"kX c #F4864A",
"lX c #E48153",
"zX c #EB865C",
"xX c #F48B55",
"cX c #F98A55",
"vX c #F38558",
"bX c #F58C5A",
"nX c #F98C5B",
"mX c #F7905E",
"MX c #F98A61",
"NX c #949580",
/* pixels */
"*X*X*X*X*X*X*X*X*X*X*X*X*X*X*X*X*X*X*X*X*X*X*X*X*X*X*X*X*X,X=X5X2XE R ].wX3X1X1XeX5X=X*X*X*X*X*X*X*X",
"*X*X*X*X*X*X*X*X*X*X*X*X*X*X*X*X*X*X*X*X*X*X*X*X*X*X*X*X*X5X>X].R M.F.[.).T A.A.[ ,X*X*X*X*X*X*X*X*X",
"*X*X*X*X*X*X*X*X*X*X*X*X*X*X=X*X*X*X*X*X*X*X*X*X*X*X*X5X>XpXR V.J.n.G.Q.H.c.J.L.(.&X*X*X*X*X*X*X*X*X",
"*X*X*X*X*X*X*X*X*X*X*X*X*X5XeX0XrX6X*X=X*X*X*X*X*X*X5XO.A.D.H.x.J.n.F.E.H.H.^.L.(.&X*X*X*X*X*X*X*X*X",
"*X*X*X*X*X*X*X*X*X*X*X*X5X3X! J ! @.0XtX5X*X*X*X*X=X2XY N.L.W.n.x.c.N.J.c.n.W.F.R &X5X=X*X*X*X*X*X*X",
"*X*X*X*X*X*X*X*X*X*X*X*X8X1XV , f 0 H L @.wXeX5X*X5X1XI P.H.G.j.r.v r.x.t.i.l.k.Y 1X5X=X*X*X*X*X*X*X",
"*X*X*X*X*X*X*X*X*X*X*X*X=XeX` k.n.r.w d N H ^ 2X5X=X0XU P.F.N.l e e q , k j 5 g k.A.pX5X*X*X*X*X*X*X",
"*X*X*X*X*X*X*X*X*X*X*X*X*XrX| T.#XJ.G.n.s d z ^ 0X6X[ A J.F.Z f y j -.k 9.k y p 1.j.(.>X*X*X*X*X*X*X",
"*X*X*X*X*X*X*X*X*X*X*X*X4XtX+.}.xXlXjX+XW.G.x.C ^ X.P c.c.r.j l t.6.s.s.f.g.u.1.j.a.M.>X5X*X*X*X*X*X",
"*X*X*X*X*X*X*X*X*X*X*X*X6XeX'.OXbXbXbXnXvX$X^.F.N n v J.l.2 y ;.5.5.1.2.1.6.j.f.u.g.i.O.,X*X*X=X*X*X",
"*X*X*X*X*X*X*X*X*X*X*X*X8X].|.zXnXbXnXnXMXbXkXE.0.5 N M.b # y t =.t e i l u 1.g.u.a.7.U @.3X3X8X*X*X",
"*X*X*X*X*X*X*X*X*X*X*X5XsX].OXbXcXbXxXcXnXnXxX^.7.p 2 6 g $ y r =.3.s G z.z.s t.u.7.0.6 N I Y ' 1XdX",
"*X*X*X*X*X*X*X*X*X*X5XaX'. XjXcXzX+X!.XX!.}.Y.K.3.t 2 5 6 $ y i :.f.b.m.yXyXz.v 1.5.Z - e 1.u 0.C.+.",
"*X*X*X*X*X*X*X*X*X=X2X] A.U.Y.XXXXP.H.H.K.K.H.Z.V.i.t $ 4 8 ; i :.v.m.uXiXuXm.s :.>.0.0.1.1.- e q.] ",
"*X*X*X*X*X*X*X*X*X5X3XT 0 B.S.D.I.OX@X+X#X+X+X+X+XW.:.3 m l & j u 2.v.m.m.R.b.g f q.t.8.7.-.8 g r. .",
"*X*X*X*X*X*X*X*X*X=X5X@.| ).XXhXhXbXbXbXnXnXnXcXkX^.y.4 9 l q y u e.j.n.v.n.3.P U k.V.B.D.b k q.b } ",
"*X*X*X*X*X*X*X*X*X*X4X5XsXpX XlXbXbXmXbXnXmXbXbXxX^.n.9 4 2 : r :.>.1.8.8.u 6 ^ @.^ { ].]./ D Z P #.",
"*X*X*X*X*X*X*X*X*X*X*X*X*XeX+.}.cXxXcXmXvXvXbXlX~.J.n.c = 3 q r 1.t.4.5.>.$ o N +.%.wXdXqXpX@.U ].7X",
"*X*X*X*X*X*X*X*X*X*X*X*X*XtX .}.cXcXcXbX$XoXXXP.P.L.F.*.* 4 a r 6.q.p ;.-.% X = { dXgXdXdXsXsX1X5X5X",
"*X*X*X*X*X*X*X*X*X*X*X*X*X7X..{.cXlX/.U.{.P.P.!.+X/.U.s 4 V Y t 2.w.e , , # * C (./ sXdXdXdXdX8X5X*X",
"*X*X*X*X*X*X*X*X*X*X*X*X5XeX`.P.XXU.K.Z.{.oX@X%XvXkX/.x.9 W ( g <.e.;.d = . X 6 C N %.NX+.sX8X=X*X*X",
"*X*X*X*X*X*X*X*X*X*X*X=X2X[ (.K.K.K.XX@X$XnXMXzX{.P._.N.l m V g 1.2.e.j m O   . @ 7 | fX .+.,X*X*X*X",
"*X*X*X*X*X*X*X*X*X*X*X5X>XK A A.).D.[.{.{.{.[.'.%.( V 7 k - d 7.4.2.>.h k.Y O M 9 8 N T  .} <X*X*X*X",
"*X*X*X*X*X*X*X*X*X*X*X*X5XX.} +..X%.#.].#.` M W &.$.n = 9 d f g.4.1.>.h D.P.U | ` 6 @ g S } &X*X*X*X",
"*X*X*X*X*X*X*X*X*X*X*X*X*X5X6X6X6X2X2XsXfX$.N 0 Y C.j.0.7 5 s e.1.=.:.I U.!.R :X5X` 1 2 A #.,X*X*X*X",
"*X*X*X*X*X*X*X*X*X*X*X*X*X*X*X*X*X5XtXqX(.C.j.f.j.a.h.j.d 5 :.a.2.;.i K.#XP./ -X5X,X` H { 7X=X*X*X*X",
"*X*X*X*X*X*X*X*X*X*X*X*X*X*X*X*X6X1X' M.j.d.h.h.j.g.s.2.-.: ;.<.1.q.i Z.XXK.+.2X5X5X,X<X2X*X*X*X*X*X",
"*X*X*X*X*X*X*X*X*X*X*X*X*X*X*X6X1X(.j.f.d.h.f.8.u.1.<.<.u : r ,.1.q.p C M.A.@.=X*X*X5X5X*X*X*X*X*X*X",
"*X*X*X*X*X*X*X*X*X*X*X*X=X=X5X1X/ l.d.g.7.a.5.5.8.>.;.=.> , j ;.=.5.1.f 6 T -X*X*X*X*X*X*X*X*X*X*X*X",
"*X*X*X*X*X*X*X*X*X*X*X*X*X5X>X(.l.d.7.4.2.a.2.5.4.c y u : - : u t 5.1.l 0 ) 6X*X*X*X*X*X*X*X*X*X*X*X",
"*X*X*X*X*X*X*X*X*X*X*X*X=X>XA.p.g.7.w.1.a.s.<.:.p k j e - o ; y y =.<.;.m _ qX0XrX5X*X*X*X*X*X*X*X*X",
"*X*X*X*X*X*X*X*X*X*X*X*X>X`.t.7.2.2.u.6.<.2.;.i e q q & o o % ; w u <.q.7 V T U ` <X6X5X*X*X*X*X*X*X",
"*X*X*X*X*X*X*X*X*X*X5X2X{ x.7.5.2.2.2.,.5.*.u f : % # @ o + n @ & e ;.-.5 2 r p b U { 1X6X5X=X*X*X*X",
"*X*X*X*X*X*X*X*X*X5X6X' y.8.f.5.8.<.<.a.1.t e e & @ @ 3 x A.(.m # : y r d 5 q w -.> x U ' wX5X*X*X*X",
"*X*X*X*X*X*X*X*X5X<X`.x.8.<.<.>.=.*.6.2.w.q.u % @ @ 6 B.!./.}.D o 1 y > x L ` ^ C < 2 9 Y <X;X*X*X*X",
"*X*X*X*X*X5X5X3X[ I x.7.5.1.;.q 2 w *.1.w.2.u = 3 b N.~.#X!.D./ ! H 8 C T :X6X0XW d N M ) 9X0X5X*X*X",
"*X*X=X5X7X<XO.Y y.8.<.2.>.-.> * * ; i l w.<.p = N J.J.K.S.)...1X;XX.` o.2X6X*X6XX.L ` ! o.X.9X=X*X*X",
"6X3X,XO.R I M.e.4.6.*.: : : : m = & y i 9.<.1.f 9 B.`.| O.3X6X5X*X5X6X5X*X*X*X=X;X:X0XqX0X9X9X6X*X*X",
"Y I I I u u p u g d Z S S S M.Z.F - ; > y >.5.>.z W @.6X5X5X5X*X*X*X*X*X*X*X*X*X*X6XtX8X5X5X5X=X*X*X",
"0.r.i.c.l b S h h Z N.{.XXXXJ.D.F 4 @ # - k >.*.d _ :X*X=X*X*X*X*X*X*X*X*X*X*X*X*X*X5X=X=X=X=X=X*X*X",
"../ k.I G A P S S S M.V.B.S.S.`.+.` ~ + o k u y A 9X5X*X*X*X*X*X*X*X*X*X*X*X*X*X*X*X*X*X*X*X*X*X*X*X",
"2X0X..[ [ [ ]  .[ [ ' ' ' [ ].qX6XeX9XM - < & N | 6X*X*X*X*X*X*X*X*X*X*X*X*X*X*X*X*X*X*X*X*X*X*X*X*X",
"*X5X5X6X6X6X,X2X5X2X6X,X2X6X2X5X*X,XL 9 & 1 n | 6X4X*X*X*X*X*X*X*X*X*X*X*X*X*X*X*X*X*X*X*X*X*X*X*X*X",
"*X*X*X*X*X*X*X*X*X4X*X*X=X*X*X*X6X) 3 % , + _ 6X4X*X*X*X*X*X*X*X*X*X*X*X*X*X*X*X*X*X*X*X*X*X*X*X*X*X",
"*X*X*X*X*X*X*X*X*X*X*X*X=X*X*X*XtXQ X $ - Q :X=X*X*X*X*X*X*X*X*X*X*X*X*X*X*X*X*X*X*X*X*X*X*X*X*X*X*X",
"*X*X*X*X*X*X*X*X*X*X*X*X*X*X*X*X8XQ X & * W :X=X*X*X*X*X*X*X*X*X*X*X*X*X*X*X*X*X*X*X*X*X*X*X*X*X*X*X",
"*X*X*X*X*X*X*X*X*X*X*X*X*X*X*X*X7XQ M n O J o.4X*X*X*X*X*X*X*X*X*X*X*X*X*X*X*X*X*X*X*X*X*X*X*X*X*X*X",
"*X*X*X*X*X*X*X*X*X*X*X*X*X*X*X=XeXo.) Q Q X.o.;X*X*X*X*X*X*X*X*X*X*X*X*X*X*X*X*X*X*X*X*X*X*X*X*X*X*X",
"*X*X*X*X*X*X*X*X*X*X*X*X*X*X*X8Xo.o.dXqX9XqXfX6X*X*X*X*X*X*X*X*X*X*X*X*X*X*X*X*X*X*X*X*X*X*X*X*X*X*X",
"*X*X*X*X*X*X*X*X*X*X*X*X*X*X*X7X@.qXdX8XdXgXtX4X*X=X*X*X*X*X*X*X*X*X*X*X*X*X*X*X*X*X*X*X*X*X*X*X*X*X"
};
