/* XPM */
static char *image__9__removebg_preview__2___1_1670943383[] = {
/* columns rows colors chars-per-pixel */
"50 50 255 2 ",
"   c #1C1600",
".  c #170F00",
"X  c #3A0A00",
"o  c #291602",
"O  c #3D1402",
"+  c #3B1A02",
"@  c #351807",
"#  c #3C1A13",
"$  c #2E0A00",
"%  c #352508",
"&  c #3B2A14",
"*  c #393716",
"=  c #2C270A",
"-  c #3F2A25",
";  c #4C1203",
":  c #4C1A0C",
">  c #471908",
",  c #531303",
"<  c #531A04",
"1  c #5D1C03",
"2  c #5A1B0A",
"3  c #571808",
"4  c #481C14",
"5  c #551A10",
"6  c #440B02",
"7  c #651C03",
"8  c #6C1B02",
"9  c #661A09",
"0  c #741D03",
"q  c #781D08",
"w  c #661E12",
"e  c #771E10",
"r  c #492308",
"t  c #54230D",
"y  c #5D230C",
"u  c #592807",
"i  c #482617",
"p  c #542313",
"a  c #5B2313",
"s  c #562B16",
"d  c #493918",
"f  c #583717",
"g  c #4C330A",
"h  c #6E2301",
"j  c #6E2B01",
"k  c #62240D",
"l  c #6B240D",
"z  c #69290A",
"x  c #732303",
"c  c #7B2403",
"v  c #722A02",
"b  c #7C2B04",
"n  c #74240C",
"m  c #7B250A",
"M  c #742A0C",
"N  c #7C290C",
"B  c #653507",
"V  c #753203",
"C  c #632312",
"Z  c #6B2613",
"A  c #632A13",
"S  c #6C2C13",
"D  c #682A1A",
"F  c #722514",
"G  c #742B13",
"H  c #7B2C14",
"J  c #792818",
"K  c #693518",
"L  c #72331B",
"P  c #7C331A",
"I  c #773817",
"U  c #5A3827",
"Y  c #522F25",
"T  c #693926",
"R  c #753824",
"E  c #692D20",
"W  c #3D4B1D",
"Q  c #3C4622",
"!  c #444919",
"~  c #54481A",
"^  c #51561C",
"/  c #66481A",
"(  c #704718",
")  c #474B22",
"_  c #564726",
"`  c #495626",
"'  c #5A5729",
"]  c #5A5833",
"[  c #584737",
"{  c #674627",
"}  c #784729",
"|  c #665627",
" . c #774837",
".. c #675A35",
"X. c #765539",
"o. c #6B4D2F",
"O. c #596534",
"+. c #596C31",
"@. c #686937",
"#. c #776538",
"$. c #67763B",
"%. c #70753F",
"&. c #5A5749",
"*. c #6A5247",
"=. c #7B5644",
"-. c #587340",
";. c #6B6B45",
":. c #776848",
">. c #657B42",
",. c #6B7847",
"<. c #767949",
"1. c #786754",
"2. c #7B7754",
"3. c #6C7D56",
"4. c #832B05",
"5. c #82240A",
"6. c #832B0C",
"7. c #8A2B0C",
"8. c #892806",
"9. c #942D04",
"0. c #992D05",
"q. c #922D0B",
"w. c #9B2C0A",
"e. c #8D320D",
"r. c #873407",
"t. c #933203",
"y. c #94330B",
"u. c #9A310A",
"i. c #99370A",
"p. c #842C13",
"a. c #8B2C14",
"s. c #852916",
"d. c #922D12",
"f. c #9A2E16",
"g. c #8C3213",
"h. c #82331B",
"j. c #893919",
"k. c #943314",
"l. c #94321A",
"z. c #9C3B1B",
"x. c #993816",
"c. c #A32F0C",
"v. c #A3350D",
"b. c #A63A17",
"n. c #B03D1E",
"m. c #963A23",
"M. c #883621",
"N. c #A33E20",
"B. c #94570D",
"V. c #9B4719",
"C. c #924A0A",
"Z. c #A7461F",
"A. c #A45110",
"S. c #B76716",
"D. c #B37618",
"F. c #874728",
"G. c #984728",
"H. c #9D542E",
"J. c #874C34",
"K. c #885137",
"L. c #995435",
"P. c #964B33",
"I. c #A64A2A",
"U. c #A8532A",
"Y. c #B3542A",
"T. c #A44D33",
"R. c #A45B3A",
"E. c #A85836",
"W. c #B65A36",
"Q. c #B24D29",
"!. c #B76238",
"~. c #AC603C",
"^. c #C35E3B",
"/. c #C3653B",
"(. c #C87F23",
"). c #CA7C17",
"_. c #895845",
"`. c #955C43",
"'. c #A95B42",
"]. c #816647",
"[. c #896B57",
"{. c #897B5A",
"}. c #956F57",
"|. c #A6664A",
" X c #B76848",
".X c #B97558",
"XX c #B46D54",
"oX c #987A65",
"OX c #8F796F",
"+X c #C26A46",
"@X c #C57447",
"#X c #CB7955",
"$X c #D27151",
"%X c #C65E43",
"&X c #678D3E",
"*X c #5D873F",
"=X c #5D8443",
"-X c #6B8C46",
";X c #668D49",
":X c #6C8D4B",
">X c #678647",
",X c #78824B",
"<X c #728E4C",
"1X c #75884A",
"2X c #6D9246",
"3X c #65924A",
"4X c #6D924C",
"5X c #689649",
"6X c #719247",
"7X c #71924D",
"8X c #7A954D",
"9X c #6D8D51",
"0X c #698353",
"qX c #7B8454",
"wX c #728D53",
"eX c #7B8B53",
"rX c #7C8C5C",
"tX c #778659",
"yX c #6C9352",
"uX c #6B9556",
"iX c #739353",
"pX c #7B9453",
"aX c #759A53",
"sX c #7A9C55",
"dX c #759459",
"fX c #7A955B",
"gX c #7D9D5A",
"hX c #749D5B",
"jX c #7DA35A",
"kX c #7CA256",
"lX c #798C64",
"zX c #7A9565",
"xX c #7A8F70",
"cX c #D48C1B",
"vX c #E39A26",
"bX c #D39524",
"nX c #86885B",
"mX c #82985A",
"MX c #83A15A",
"NX c #888C67",
"BX c #869865",
"VX c #9A8B74",
"CX c #929071",
"ZX c #87A564",
"AX c #8EA776",
"SX c #DC835B",
"DX c #C98258",
"FX c #E68D67",
"GX c #E48857",
"HX c #979E8D",
"JX c #9AAD91",
"KX c #AFAD90",
"LX c #A99A85",
"PX c #B0C298",
"IX c #D0D9BC",
/* pixels */
"uXyX4X6X<X6X6X2XuXuX:X8X<X<X9X0X-X8X2X2XwXdX;X4X6X<XiX9XdXyX:X4X<X8X1XlXCXVXtX9XdX7X<XiX:X:X4X2X4X4X",
"uX3X7X6X6X6X2X5XuX0XeX,X,.eXlX3.BXiX-X2X;XdXaX-X8X6X7X4X:XyX7X<X1XeXNX{.[.nXNX,X,.$.>X<XpX<X4X4X4X4X",
"3X4X4X7X-X<X7XyXzX0XnX2.;.2.CXHXJXxXdXuX4XdXMX-X-X6X6X7X9XuX2XiXwXBXKX{.K X.}.X.| | $.<XgXgX:X7X4X4X",
"4X3X4X4X6X<XyX9XtX&.% i i d Y - &.HXJXzXyXgXsXsX7X6X2X-XuXuX9XfXPXCX}. .} `.K.( I f ^ pXsXMX:X7X<X4X",
"7X4X6X7X4X4XyX9XxX;.X t : : 5 i U OXHXAXwXsXsX:X4X3X4X2XuXdXHXAXKXoX`.P.G. XL.j.E.F.~ 8XsXsX7X7X4X4X",
"7X7X7X7X4X3X3X9XAX{.: L I H J Z 5 4 1.HXfXiXgXiXyXyXyX4X9XBXIXKX[.R P.#XG. X+XQ.$XT.| <XsX4XiX:XwX4X",
"<XwX7XyX3X;X3XyXmX{.F.U.U.U.Y.W.P.Z s o.2.9X7X4XuXuX:XiXNXNXLX*.`.E.I.W.k.!.U.I.%XT./ 1X7X5XaXyX4X4X",
"wX<X7XyX=X;X:XiXqX#.R./.W./././.H.n < g 2.tXwX:XuXtXqX{.VXoX}.R T.^.b.Z.C.!.V.U.%XG.| 1X5XyX;XyX4X4X",
"7X4X4X4X=X=X>X1X_ o.E.Y.Y.Y.Y.U.G.n 1 A ' ;.wXeXtX{.VX}.`.I I I.Y.^.n.Z.V.W.U.T. XF.| eX:X3X4X4X<X:X",
"yX4X4XyX=X=X0XnXd T '.Q.Y.Y.U.U.H.G.m.G d ;.qX%.2.{.].J. XU.G.W.Q.Q.b.k.g.G.j.j.U.j./ <.yXyX7X<X7XyX",
"4X3XyXyX>X>XwXeXd T  X'.Y.W.!.E.E.R.'.M.p :.2.' _.}.J.h.!.^.Q.W.I.I.m.H G J p.m b M } #.eXyX7X<X7X7X",
"4X4X4X4X:X:XwXrX;.T #XFXFXFXSX!.E.P.T.h.5 X.NXo.R |..XE.Y.W.z.m.W.G.j.9 1 1 8 8 7 M F.} ,X<X7X6X4X7X",
"4X7X7X4XyX4X4XeX3.s L.DX/.@X@XW.U.T.E.G.Z K VX1.`.L.P.G.6.G.l.a.P.M.s.m x m 5.5.8 s.m.R <.<X<X4X4X4X",
":XiX7X4X4XyX4XwX3.g I H.U.U.A.~.W.E.R.L.R p OX[.XXE.N P N a.H m m.s.m 6.5.7.8.f.5.a.m.h.#.pX6X4XiX4X",
":XaXaX4X4X4X4XwXQ % ( E.E.!.!.SXFX XP. .L y *.[ S P e e n 8 5.4.n N 8.v.v.A.v.b.z.a.f.M.| 8X<XsXiX4X",
"2XgXkX4X2XyX<XwX! o } L.H.R.R..X#XXX_.{ 2 D [ i z H J e 6.c 8.4.h c 8.0.0.v.c.b.x.7.z.j.~ <.wXgXMXiX",
"4XjXZX4X7X4X7XwXW % u } K._._._.=.}.OXi 6 E # $ 1 c l.f.y.u.0.8.x M 7.8.b c 5.a.x.V.0.C./ #.lXBXAX6X",
"2XaXMXaXMX6X7X7X$.! { { R > # % # *.OX[ w D p t H e.f.f.9.0.0.y.x h m 7.x h M M q.x.y.r.I X.2.2.ZXeX",
"4X6XmXaXgX2X3X4X&X' @.o.{ 6 6 > > T }.J.M.p.G n e.k.d.d.t.t.u.7.b 0 m 6.x j V V 6.z.N.g.S K } ].nXnX",
"2X6X6XpX7XiX2XuX5X7XnX#.} K z z S 9 H m.I.a.p.j.t.q.q 6.i.t.0.7.4.x m e.C.C.B.B.r.d.m.5.1 1 G L }.VX",
"6X2X&X3X-XiX:X;XkX>.| K l.z.j.j.x.G.b.b.b.q.s.7.y.e.8 h r.t.u.0.8.q q e.C.D.D.(.C.b l.s.9 F h.G T 1.",
"7X5X3X*X>X:XyXwX:X@./ j 8.n.n.z.b.x.v.Z.b.8.5.a.k.a.9 7 4.t.0.0.8.5.0 4.A.cXbXcXB.x 7.s.e J P l y X.",
"<XwX7X3X:X9XsXnX@.f v z.n.c.w.v.y.y.0.w.w.8.5.5.d.a.l 1 v r.7.0.8.b h b B.(.vXvXA.v e.g.8 F l 1 L _.",
"eXwX:X4X7X8X,...K I k.u.c.c.c.0.u.u.u.w.d.q e s.d.a.M 1 7 b 4.8.r.b j V r.S.cX).B.h r.g.L R Z y L J.",
"yX9XwXwXwX1X#.B h k.b.w.q.w.v.9.u.u.f.k.g.8 9 J p.g.I 7 , M m 4.t.b j V 4.A.S.A.( u V G R K.u K R R ",
"yX9XmX$.| | B j y.c.0.w.u.u.u.0.u.9.k.g.6.7 9 J 6.g.e.7 , z F 5.4.b v b 8.V.A.V.( o.} < [.VXr K E *.",
"9XdX,.~ / j V r.v.v.0.9.u.9.0.u.y.4.g.6.N 8 7 n 7.9.i.c ; p 2 l n c 0 c 8.x.k.j.u :.X.r :.[.> t U =.",
"9X,X{ B j x V.Z.0.0.0.0.u.t.y.y.4.b 6.m x 7 7 l 5.8.y.b ; : < 2 F F m q 4.e.7.x a oX=.@ *.[ > ; T 1.",
",Xf I G.z.x.x.q.9.u.0.t.y.y.d.8.q m N 8 Z 2 < C n 4.y.6.y  .F.R 3 , w n N 6.a.F 5 T =.# # Y 4 : { <.",
"#.g M g.z.b.d.f.q.k.7.r.e.g.d.7.n q n 9 w ; O 4 l N 6.0 y `.|.P.L C w l M M 6.n 9 T T 4 4 > 5 f @.,X",
"< z K 7 8 p.l.k.s.a.N m N p.f.s.w 9 w 2 4 X # # 5 l s.h.I .XDX@XH.M.S y z v G n w w ; 5 a a D ( <.8X",
"} K K L Z 9 n 8 0 m w 7 n a.l.l.w , 2 2 O # # i : C J H A K.F.P. X XK.y u 1 , 5 w 5 4 a 5 t u | nX<X",
"X./ K L C 3 k 9 w k , , e 6.7.l.S ; > > @ i T U ; w J J A f E R '..XP.a r > + & 4 # # i 4 : > ..pX<X",
"d d r r p y R } D ; X 6 w s.g.g.G , 6 O t K.XX`., 5 F F Z t > : E L K f o o . . . $ @ $ $ @ + ..eX<X",
"-.,.$...~ s K I Z 3 5 X 7 H a.g.s.w 5 Y G.#XSXR.: > Z 0 H G G k p i _ _ ` O.O.O.] _ d s i s O ..eX4X",
"uXyXiX1X' f f K a A s O < l H a.m.e 5 R  XGX#X~.r + k z M G h.k 4 # _ ] ,.fXaXpXrXO.) [ .._ @ @.eX7X",
"yXyX:X1XeX%.| | f s U i r y k p.k.s.A |.SXDXL.} ' i r + O : C E s i [ <.qX<X4X4X7X>X$.,.qX<.] >.wX<X",
"4XyX7XiXiX1X$.@.#._ f r $ + < n g.6.y J.!.U.| o.;.] ~ ' ] U : E Y U ..;.rX:X;X4X:XyX>.>XrXwX>.>XiX7X",
"4X4X6X:X;X4X8XpXmX@.~ o o o + y P Z & U K / ..O.rXrX1XfXdX,.Y 4 : U ' ..mXdX:XyXuXyX=X:X7X7X4X4X4X4X",
"4X7X7X<XiX2X-XjX<X1X;...;.* O K Z r & [ U ] qX9XyX9X9X3X3XuX@.r f s _ ' <.wXyXuXyXyX9X4X2X4X4X2X:XiX",
"4XiX:XyX5XaXaXkX7XiX>X,.3.d r A u r O.+.O.$.aX:X9XuXuXyX6XMX%.g ' g ' ' ,.dXyXyXyX4XiX<X<X:X6X6X4X4X",
"4XuX:XyX3XaXkXkX5X5X9XtX2._ p a + ! uXyXdXuX4X7X4XyX9XuX6XZX%.^ ..~ ' ` $.aX>XyX4XyX7XiX<X7X<XiX4X7X",
"4X4X9XdX-XaXkXkX5XuXhXdX;.= t + % >XiX:X:X7X2X4X2X4X2X4X7XZXnX$.@.@.@.` >.aX4X3X:X7XyX<X4XiXyXyX4X:X",
"4X4XyXiX-XsXkXaX5X5X-XeX] o g & W dX>XwX:X7X6X4X5X5X2X2X8XMXmX&X+.,XeX+.>XiXyX4X4X4X4X7X7X4XyX4X7XyX",
"4X4XwXdX1X8XaX4X5X:XpXNX% o = ;.fXiXdXwX<X:X:X6X4X5X3X5X2XsX7X<X$.1X<X:XiX:XyXuX4XiX<X4X7X4X4X4X7X:X",
"5X4XuXwX<XpX7X2XyX;XpXO.= = * 0XiX>X9XdXwX7XsX<X4X4X4X4X4XyX5X4X4X:X4XdXuXyX9X4X4X6X4X4XaX7X4X4X4X4X",
"6X4XyXwX7X6X4X3X3X4XdX) o = Q 0XyXaX2XyX;XaXgX:X4X<X6X<X4XuX:XwX1XiXwX:X:XiX4X:X:X7X6X7XaXaX4X2X4X4X",
"6X7XyX9X7X7X4X4X4XyXuXW o =   3.iX4X7X2XyXjXaXsX6X6X<X<XyXuX9XwX9XiXiX:XiX6X:X7X:X8X6X7XkXkX4X4X4X7X",
"4X4X4X6X4X:XiX4X:X:XiXW = @ * ` 0XuX4X4X4XsXkX4X6X7X<X<XyX4XyX7X7X4X<X4X4X4X4X4X4X4X7X7XjXaX4X7X4X4X",
"7X4X4X4X4XyXyXwX<X:XdX) = @ & Q :XiX:X2X4XaXkX2X4X4X4XyX:X4X7X4X:X4XyX7X4XwX<X4XiX4X4X7XjXaX2X4X4X4X"
};
