/* XPM */
static char *image__3___1_1670608796[] = {
/* columns rows colors chars-per-pixel */
"50 50 229 2 ",
"   c #1A0E06",
".  c #1E1008",
"X  c #24140A",
"o  c #2A170C",
"O  c #2C1A0E",
"+  c #33150E",
"@  c #331C0E",
"#  c #3B1D0E",
"$  c #2D1D12",
"%  c #331E11",
"&  c #3B1B12",
"*  c #341C18",
"=  c #2A2418",
"-  c #342113",
";  c #3C2414",
":  c #392619",
">  c #36281B",
",  c #3D2A1C",
"<  c #39371F",
"1  c #362920",
"2  c #3E3224",
"3  c #383C28",
"4  c #333B39",
"5  c #431A12",
"6  c #4A1B15",
"7  c #571C19",
"8  c #631E1D",
"9  c #422615",
"0  c #4C2414",
"q  c #432916",
"w  c #442B1A",
"e  c #492819",
"r  c #4B2D1A",
"t  c #552818",
"y  c #44321C",
"u  c #4C321C",
"i  c #4E3B1C",
"p  c #54331C",
"a  c #5A351D",
"s  c #563A1E",
"d  c #68211D",
"f  c #66391E",
"g  c #71391E",
"h  c #422F23",
"j  c #443223",
"k  c #4B3424",
"l  c #4A3926",
"z  c #4D332C",
"x  c #4E3A29",
"c  c #533522",
"v  c #593722",
"b  c #543A25",
"n  c #5C3B22",
"m  c #543C2A",
"M  c #5A3E2A",
"N  c #682825",
"B  c #752926",
"V  c #653927",
"C  c #633D24",
"Z  c #773926",
"A  c #653431",
"S  c #56421F",
"D  c #484627",
"F  c #594526",
"G  c #5C422D",
"H  c #50522F",
"J  c #474538",
"K  c #5D4431",
"L  c #594B35",
"P  c #4C5637",
"I  c #545532",
"U  c #535B33",
"Y  c #5B5C34",
"T  c #644423",
"R  c #694226",
"E  c #644B25",
"W  c #64432D",
"Q  c #6B432B",
"!  c #6B4C29",
"~  c #76482B",
"^  c #685126",
"/  c #6C5328",
"(  c #785A2C",
")  c #624631",
"_  c #6A4735",
"`  c #654933",
"'  c #6B4C34",
"]  c #6D4F39",
"[  c #764E38",
"{  c #615C34",
"}  c #695539",
"|  c #725334",
" . c #7B5734",
".. c #74543C",
"X. c #79573E",
"o. c #7B593F",
"O. c #4F6236",
"+. c #536237",
"@. c #54643A",
"#. c #5B653B",
"$. c #566B3C",
"%. c #596C3C",
"&. c #5B733F",
"*. c #7E622F",
"=. c #66663A",
"-. c #776739",
";. c #6B703F",
":. c #7E703E",
">. c #3D4B4D",
",. c #4C4C45",
"<. c #4D5243",
"1. c #4B534D",
"2. c #575748",
"3. c #545C59",
"4. c #6A5C45",
"5. c #775945",
"6. c #7D5B41",
"7. c #5B6C42",
"8. c #5C644A",
"9. c #5D7542",
"0. c #5F7943",
"q. c #5E6758",
"w. c #686647",
"e. c #746C49",
"r. c #627541",
"t. c #637D45",
"y. c #637A4A",
"u. c #7C7345",
"i. c #686B5A",
"p. c #726D55",
"a. c #6B7758",
"s. c #767757",
"d. c #596766",
"f. c #5E7270",
"g. c #646D67",
"h. c #787B66",
"j. c #87352C",
"k. c #864526",
"l. c #964A28",
"z. c #845228",
"x. c #9A522F",
"c. c #924F32",
"v. c #885534",
"b. c #A6532B",
"n. c #A15531",
"m. c #AA5933",
"M. c #B85D33",
"N. c #826430",
"B. c #866933",
"V. c #8C6D34",
"C. c #947336",
"Z. c #987737",
"A. c #967538",
"S. c #997738",
"D. c #9C793A",
"F. c #B26039",
"G. c #A17E3C",
"H. c #C0653A",
"J. c #815D42",
"K. c #83684D",
"L. c #887945",
"P. c #827956",
"I. c #658346",
"U. c #678649",
"Y. c #688548",
"T. c #688749",
"R. c #6B8C4C",
"E. c #6E914D",
"W. c #70934E",
"Q. c #709450",
"!. c #A6823E",
"~. c #8E814C",
"^. c #99884D",
"/. c #988A54",
"(. c #A18F52",
"). c #A59456",
"_. c #B7A45E",
"`. c #8F8B67",
"'. c #978D66",
"]. c #888C7A",
"[. c #989378",
"{. c #A89B6A",
"}. c #A29C76",
"|. c #AA9F74",
" X c #BAA865",
".X c #AEA77F",
"XX c #B9AC7B",
"oX c #C2AF64",
"OX c #CBB566",
"+X c #C7B468",
"@X c #D1BE6E",
"#X c #D7C26E",
"$X c #DBC772",
"%X c #E4CE73",
"&X c #E9D37A",
"*X c #F4DD7C",
"=X c #F7E07E",
"-X c #FDE47F",
";X c #6D8689",
":X c #7A9190",
">X c #8D938A",
",X c #94A196",
"<X c #AEAA8F",
"1X c #BFBDAE",
"2X c #C7BB87",
"3X c #C5BE9F",
"4X c #CCC297",
"5X c #D4C791",
"6X c #DED09A",
"7X c #ECD987",
"8X c #F3DC82",
"9X c #F2DF88",
"0X c #E6D699",
"qX c #FFE680",
"wX c #FFE881",
"eX c #F9E48C",
"rX c #FFEA8C",
"tX c #FFEB91",
"yX c #FAE99A",
"uX c #CEC8AE",
"iX c #E4DAAE",
"pX c #EEE1A7",
"aX c #F6E7A5",
"sX c #FBECAB",
"dX c #FFF1A9",
"fX c #F9ECBA",
"gX c #D7D6D2",
"hX c #F5ECC4",
"jX c #FFFBCC",
/* pixels */
"E.E.E.E.E.E.E.E.E.E.E.E.E.E.E.E.@.P E.E.E.E.E.E.E.E.E.E.E.E.E.R.h.fXdX`.0.E.E.E.E.E.E.E.E.E.E.R.E.E.",
"E.E.E.E.E.E.E.R.E.E.E.E.E.E.E.I.>X].T.E.E.E.E.E.E.E.E.E.E.E.E.R.h.fXdX{.&.Q.W.E.E.E.E.E.E.E.E.E.E.E.",
"E.E.E.E.E.E.E.E.E.E.E.E.E.E.E.9.1X<XI.E.E.E.E.W.I.=.I.E.E.E.E.I.P.fXsX{.@.E.E.E.E.E.E.E.E.E.E.E.E.E.",
"E.E.E.E.E.E.E.E.E.E.E.E.E.E.E.7.2X4Xy.E.E.E.E.I.| F. .I.E.E.E.9.}.sXpX'.@.Q.E.E.E.E.E.E.E.E.E.E.E.E.",
"E.E.E.E.E.E.E.E.E.E.E.E.E.E.E.%.2XaXs.T.W.Q.W.t.f b.f &.E.E.E.%.6XsX5XP.#.E.R.E.E.E.E.E.E.E.E.E.E.E.",
"R.E.E.E.E.E.E.E.E.E.E.E.E.E.E.&.|.dX+X#.U.R.&.H a # f F +.9.P e.5X0X Xw.r.W.W.E.E.E.E.E.E.E.E.E.E.E.",
"E.E.E.E.E.E.E.E.E.E.E.E.E.E.E.I.p.0X6Xw.1.<.' m.Z @ t m.c.J >Xp.'.{.'.U R.W.E.E.E.E.E.E.E.E.E.E.E.E.",
"E.E.E.E.E.E.E.E.E.E.E.E.E.E.E.E.U P.w.g.:X3.x.g q J > 5 c.J ,X>Xp.'.s.O.E.E.E.E.E.E.E.R.E.E.E.E.E.E.",
"E.E.E.E.E.E.E.E.E.E.E.E.E.E.E.E.2.J Q.;Xi.F # # v y q % X a 6.h.h.4.P y.E.E.E.E.E.E.E.E.E.E.E.E.E.E.",
"E.E.E.E.E.E.E.E.E.E.E.R.E.E.E.E.8.g.g.[ n.k.9 a p F i q # q x.m.v.e D R.E.E.E.E.E.E.E.E.E.E.E.E.E.E.",
"E.E.E.E.E.E.E.E.E.E.E.E.E.E.E.E.U Q m.M.C q p p E V.*.S q ; & Z M.H.F &.E.W.R.E.E.E.E.E.R.Q.E.E.E.E.",
"E.E.E.E.E.E.E.E.E.E.E.E.E.E.R.0.l x.b.t J m u E B.Z.D.N.S q 2 2 0 ~ f  .r.y.R.E.E.E.E.W.R.W.E.R.E.E.",
"E.E.E.E.R.E.E.E.E.E.W.E.E.U | x.~ 5 r a p i i ~ z.z.z.~ *./ i q r @ # g m.~ H T.E.W.W.W.E.E.E.E.E.E.",
"E.E.E.E.E.E.E.E.E.E.E.T.=.s k.g 9 r a u S ^ T p 0 9 0 T Z.D.V.S q r : - @ t x.v.;.t.R.W.E.E.E.E.E.E.",
"E.E.E.E.E.E.E.E.E.R.;.v.b.k.X > F f r ^ V.Z.C.u     X ! D.!.!.*.i q J J # @ t k.b. .T.W.E.E.E.E.E.E.",
"E.E.E.E.E.E.E.E.E.&.c.l.t @ r F G p ^ D.!.!.Z.i X   O E D.!.Z.Z.*.; # q p r @ = y Y R.R.E.E.E.E.E.E.",
"E.E.E.E.E.E.E.E.E.R.U D < y a p ; T C.!.!.D.( a p p p a N.Z.Z.Z.V.u p D H n y r.R.R.E.E.E.E.E.E.E.E.",
"E.E.E.E.E.E.E.E.E.E.E.E.I.y l - % F D.D.D.G.N.( R b.~ / V.Z.Z.Z.( p R ;.E.T.t.E.E.E.E.E.E.E.E.E.E.E.",
"E.E.E.E.E.E.E.E.E.E.E.E.E.R.T.D r i C.C.A.D.D.N.a 0 0 W B.C.C.Z.( a T t.E.E.W.E.E.E.E.E.E.R.E.E.E.E.",
"E.E.E.E.E.E.E.E.R.R.E.E.E.E.E.Y a s ( C.S.S.V.r 7 o & 7 R Z.Z.Z.( a E R.E.E.E.E.E.E.R.E.E.E.E.E.E.E.",
"E.E.E.E.E.E.E.E.O.9.E.E.E.E.E.9.p f T C.Z.*.M & % ; ; O e / C.A.^ f { R.E.E.E.E.E.R.w.y.Q.Q.E.E.E.E.",
"E.E.E.E.E.E.E.T.y.a.R.E.E.E.E.R.D f f *.^ R Z e q O ; q 7 B v N.E a { E.E.E.E.E.E.y.,XR.E.E.E.E.E.E.",
"E.E.E.E.E.E.E.I.,XuXr.E.E.E.E.E.U a f E b k.e q % h , 9 9 N N / E a $.E.E.E.E.E.R.h.gXa.E.E.E.E.E.E.",
"E.R.E.E.E.E.E.I.[.hX>Xy.U.E.E.E.&.p r p q ; q - k m k * ; 9 % C a u &.E.E.E.R.0.a.uXiXy.E.E.E.E.E.E.",
"E.E.E.E.E.E.E.T.s.yXsXuX].7.U.E.T.j N B & q % > h k k h % q ; 0 Z k #.R.R.0.i.<XfXyX2X9.E.E.E.E.E.E.",
"E.E.E.E.E.E.E.E.7.7X8XyXyX<X8.7.H B j.5 ; ; , j m 2.L z j - q % 9 j.C 7.@.s.iXsX7XeX|.0.E.E.E.E.E.E.",
"E.E.E.E.E.E.E.E.$.XX#XOX$X+Xi.f.h 8 5 ; 9 - 2 2.i.q.a.2.j j - r % O e ,.d./.+X$X X7Xu.U.E.E.E.E.E.E.",
"E.E.E.E.E.E.E.E.I.e.+X).~.2.2.z X X ; , O $ ,.i.q.2.q.i.J h , - q %   * L ,.4./. X X+.E.E.E.E.E.E.R.",
"E.E.E.E.E.E.E.E.Q.P e.p.> N B 7 + q r - j 1 2.<.d.;X3.<.,.j m , % : ; + 7 N h J s.H 9.W.E.E.E.E.E.E.",
"E.E.E.E.E.E.E.E.R.P d.d.> 6 5 & r 9 - > k 1 8.<.d.;Xd.2.2.x ..K j - ; q o + & z d.1.%.W.E.E.E.E.E.E.",
"E.E.E.E.E.E.E.Y.L z A N 7 + ; r : : m ) 5.j P 1.4 >.4 2.J m 6...) k * - 9 * 5 d N v x +.E.E.E.E.E.E.",
"E.E.E.E.E.E.E.$.h B d 5 % ; q : h m ) 5.] 3 = J J 4 P >.= j G K G z > O % q ; + 6 d N 2 t.R.R.E.E.E.",
"E.E.E.R.+.} W N t + X ; q ; > j l m m b M M 1 = 4 J 4 = z | ........M M j % q q - X 5 N B A ` &.W.E.",
"E.E.E.I.j N 8 7 6 9 r ; $ - ; k b ` ..6.6.6.] m > > 2 L ..5...' ..6.[ ' ) k $ - q w 9 6 7 t c H E.E.",
"E.E.E.E.0.@.- ; r q - , k ) G ) b V Q ) ) ) _ ' m K ` W M ) V v M W ] ` X.] w ; O - r q - 3 9.U.E.E.",
"E.E.E.E.E.t.y u ; w w K ..6.W G v Q v.z.~ Q V Q ! ~ ~ ~ ~ ~ Q n r u M b W ` y p r 2 < ; ; D E.E.E.E.",
"E.E.E.E.E.&.H &.l p w K ' G k K j c v n C V b c u w 9 O * ; c ) ) ..J.6.J.6.b u p $.E.P = D E.E.E.E.",
"E.E.E.E.E.E.W.R.D a w m G b k b b k k k r %   X o o X $ ; c M 6.6.5.X.X.| ..k p p 0.Q.Q.I.0.E.E.E.E.",
"E.E.E.E.E.T.9.I q a k X.X.X.X.| [ ..6.| M r . 9 ; c e w r m k M m ) ) ) K G w a y H 0.T.Q.E.E.E.E.E.",
"E.E.E.I.%.s.<X>Xq a w ` ` K ` ` K K K m r c X w e v e w r C ' ] ` W ) W G G , w - [.<Xs.$.U.E.E.E.E.",
"W.R.%.h.3XhXjX<Xq s w m m m k k m M M b r n O r q R r q a W X.6.X.5.o...5.6.` u $ <XjXhX4Xh.9.R.E.E.",
"R.7..XsXyXrXrX Xq a w | X.o.| G J.J.J.X.b Q $ q q V r q C M K W K G m M m K m p q  XrXtXyXsX<X#.R.E.",
"$.).rXwX-X-XwXoXu s ; G ) ) ) k ` ] ] K v W $ r q V r q Q n m G G W ) ` ` | M f u  XwXwX-XwXrX).$.R.",
"Y %XwXwXwXwXwX#Xs C w ' W W M c b b k u c C - r q R r 9 W W X.X.X.6.6.6.o.[ M s i #X-XwXwXwX-X%X=.R.",
"Y #XqXqX-XwXwX9XL p k X.6.J.J.6.J.o.J.` r v : q q R r 9 C b M G G G G ) K G k u L eX-X-XwX-XqX$X#.R.",
"I _.*XqX-X-X-XtX|.k - G ) ] ] ] ] ..X.) q c ; q q Q r q C G ] ] ] ' ' ' ' G , y |.rX-X-XqXqX&X_.Y R.",
"#.u.+X%X*X=X=X*XyX4X'.p.L m x l z x m k q k ; @ % p * - b k b l l b F L 4.K.[.4XyX*X=X=X=X%XOXV.&.E.",
"R.U (.OX#X%X*X-X8XeXdXsXpX6X5X<X{.(.L.w n C s p r r 9 9 w w L.(. X<X2X6XpXdXdXtX*X*X=X&XOX+X).+.R.E.",
"E.U.Y ^._.+XOX$X%X%X*X*X*X8X*X%X@X_.-.y s s T s f S s f s y :._.@X&X8X8X8X*X*X&X$X$X@XoX_.^.U T.W.R.",
"E.E.T.+.Y -.L.~.(.(.(.(.~.:.=.=.Y #.$.$.%.%.%.%.%.%.&.%.%.$.+.$.Y Y =.:.L.(.(.).(.^.V.-.{ +.T.W.E.W."
};
