/* XPM */
static char *d67599aca5ff4436da5f98dd9e00ad9aH8FUAW6GumFwV8ig[] = {
/* columns rows colors chars-per-pixel */
"50 53 176 2 ",
"   c #120F23",
".  c #151324",
"X  c #191722",
"o  c #1D1B25",
"O  c #16142A",
"+  c #19172C",
"@  c #1B1A35",
"#  c #1D1B39",
"$  c #211F3A",
"%  c #1D2423",
"&  c #1F2A23",
"*  c #1F2332",
"=  c #2C2A27",
"-  c #232A29",
";  c #253426",
":  c #263826",
">  c #293B2D",
",  c #32312A",
"<  c #23233C",
"1  c #272A39",
"2  c #2A363A",
"3  c #363539",
"4  c #2B4128",
"5  c #3D472E",
"6  c #314C29",
"7  c #35552C",
"8  c #395C2D",
"9  c #2F4338",
"0  c #344E35",
"q  c #365332",
"w  c #3E652F",
"e  c #3D6134",
"r  c #444531",
"t  c #4C4D32",
"y  c #48493C",
"u  c #4E5038",
"i  c #515234",
"p  c #55573A",
"a  c #5D6037",
"s  c #5E6038",
"d  c #467432",
"f  c #4D7735",
"g  c #4A7B34",
"h  c #64673B",
"j  c #6A6E3D",
"k  c #767A3F",
"l  c #232342",
"z  c #282743",
"x  c #2B2A45",
"c  c #27294B",
"v  c #292A4B",
"b  c #312F4A",
"n  c #2C3647",
"m  c #393940",
"M  c #333149",
"N  c #2C2F52",
"B  c #2E3454",
"V  c #333250",
"C  c #30365B",
"Z  c #32395E",
"A  c #3C3E5D",
"S  c #353C63",
"D  c #383F68",
"F  c #3E405E",
"G  c #3A436D",
"H  c #3E4774",
"J  c #3F4975",
"K  c #494A47",
"L  c #585B4A",
"P  c #44465C",
"I  c #4E5152",
"U  c #646843",
"Y  c #767B42",
"T  c #727748",
"R  c #464966",
"E  c #4A4C6C",
"W  c #4D516E",
"Q  c #404A76",
"!  c #494F76",
"~  c #434D79",
"^  c #4E5175",
"/  c #47507C",
"(  c #4A537E",
")  c #52567A",
"_  c #565978",
"`  c #55597E",
"'  c #4E8435",
"]  c #528A37",
"[  c #528D37",
"{  c #549237",
"}  c #559238",
"|  c #5B9639",
" . c #5B9D3A",
".. c #5EA33B",
"X. c #60A73C",
"o. c #63AC3D",
"O. c #69AE3E",
"+. c #66B03E",
"@. c #6BB13F",
"#. c #6DAF40",
"$. c #6EB140",
"%. c #73B242",
"&. c #7CB644",
"*. c #838A45",
"=. c #898F47",
"-. c #848A4A",
";. c #8B9248",
":. c #989F4C",
">. c #82A345",
",. c #9EA54E",
"<. c #83B946",
"1. c #87BA48",
"2. c #8BBC49",
"3. c #A2AA4F",
"4. c #A4B150",
"5. c #AAB352",
"6. c #AFB954",
"7. c #B2BC55",
"8. c #95C04C",
"9. c #9CC34E",
"0. c #A3C651",
"q. c #ACC954",
"w. c #B9C757",
"e. c #B3CC56",
"r. c #BCCD58",
"t. c #BDD059",
"y. c #C2CE5B",
"u. c #C5D35B",
"i. c #C9D55D",
"p. c #CCD95E",
"a. c #4B5581",
"s. c #535B84",
"d. c #595E86",
"f. c #545D88",
"g. c #585F8B",
"h. c #57608A",
"j. c #5B638D",
"k. c #5F6791",
"l. c #61678F",
"z. c #666989",
"x. c #686C8F",
"c. c #72748F",
"v. c #616790",
"b. c #626993",
"n. c #676E99",
"m. c #686F9A",
"M. c #6A7096",
"N. c #69709A",
"B. c #777992",
"V. c #797A94",
"C. c #71769D",
"Z. c #737A9D",
"A. c #7177A0",
"S. c #737AA2",
"D. c #797FA6",
"F. c #7C82A7",
"G. c #7D84A9",
"H. c #8087AA",
"J. c #8489AD",
"K. c #888DAE",
"L. c #898EB0",
"P. c #8D92B3",
"I. c #9196B5",
"U. c #9398B7",
"Y. c #959AB9",
"T. c #999DBB",
"R. c #9DA1BE",
"E. c #9EA2BE",
"W. c #9FA3C0",
"Q. c #A1A5C1",
"!. c #A2A6C1",
"~. c #A3A7C2",
"^. c #A4A8C3",
"/. c #A5A9C3",
"(. c #A5A9C4",
"). c #A6AAC4",
/* pixels */
"i.i.i.i.i.i.i.i.i.i.i.i.i.i.i.i.i.i.i.u.i.i.i.i.i.i.i.i.i.i.i.i.i.i.i.i.i.i.i.i.i.i.i.i.i.i.i.i.i.i.",
"i.i.i.i.i.i.i.i.i.i.i.i.i.i.i.i.i.i.i.i.i.i.i.i.i.i.i.i.i.i.i.i.i.i.i.i.i.i.i.i.i.i.i.i.i.i.i.i.i.i.",
"i.i.i.i.i.i.i.i.u.i.i.i.i.i.i.i.i.i.i.i.i.i.i.i.i.i.i.i.i.i.i.i.i.i.i.i.i.i.i.i.i.i.i.i.i.i.i.i.i.i.",
"i.i.i.i.i.i.i.i.i.i.i.i.i.i.i.i.i.i.i.i.i.i.i.i.i.i.i.i.i.i.i.i.i.i.i.i.i.i.i.i.u.i.i.i.i.i.i.i.i.i.",
"i.i.i.i.i.i.i.i.i.i.i.i.i.i.i.i.i.i.i.i.i.i.i.i.i.i.i.i.i.i.i.i.p.p.i.i.i.i.i.i.i.i.i.i.i.i.u.i.i.i.",
"i.i.i.i.u.i.i.i.i.i.i.i.i.i.i.i.p.i.i.i.p.p.i.p.i.p.i.p.i.i.p.i.p.p.i.i.i.i.i.i.i.i.i.i.i.i.i.i.i.i.",
"i.u.i.i.i.i.i.i.i.i.i.i.i.i.y.7.7.6.6.6.7.6.6.6.7.7.6.6.6.6.6.6.7.7.u.i.i.i.i.i.i.i.i.i.i.i.i.i.i.i.",
"i.i.i.i.i.i.i.i.i.i.i.i.p.u.5.U a a a s s s s s s s s s s s s s p *.7.i.i.i.i.i.i.i.i.i.i.i.i.i.i.u.",
"i.i.i.i.i.i.i.i.i.i.i.i.i.y.;., o o o o o o o o o o o o o o o o o i 7.u.i.i.i.i.i.i.i.i.i.i.i.i.i.i.",
"i.i.i.i.i.i.i.i.i.i.i.w.5.:.T 3 < x M M M M M M M M M M M M M < < K =.3.7.y.i.i.i.i.i.i.i.i.i.i.i.i.",
"i.i.i.i.i.i.i.i.i.p.i.5.j r K W _ z.B.B.V.V.V.V.B.B.V.V.V.V.c._ ^ E y t *.y.i.i.i.i.i.i.i.i.i.i.i.i.",
"i.i.i.i.i.i.i.i.i.u.y.:.r + V l.C.K.!.^.^.^.^.^.Q.^.^.Q.^.^.E.H.m.) $ o h 6.y.i.u.i.u.i.i.i.i.i.i.i.",
"i.i.i.i.i.i.i.p.y.3.=.T K V E Z.H.I.^.^.^.^.).^.^.).^.^.^.^.Q.P.H.x.A b L Y ;.7.u.p.i.i.i.i.i.i.i.i.",
"i.i.i.i.i.i.i.p.6.j , m ^ g.C.I.E.E.^.^.^.^.^.^.^.^.^.~.^.^.Q.E.T.K.x.d.P 3 r =.y.p.i.i.i.i.i.i.i.i.",
"i.i.u.i.i.i.r.w.3.p + x d.A.J.W.).^.^.^.^.^.^.^.^.^.^.^.^.^.^.^.^.Y.D.m.E $ - Y 7.w.y.i.i.i.i.i.i.i.",
"i.i.i.i.i.u.,.Y U I A ^ Z.K.I.Q.^.^.).Q.^.^.^.^.).^.^.^.^.^.^.^.^.E.P.J.z.R P L j *.7.i.i.i.i.i.i.i.",
"i.i.i.y.i.y.k = $ E v.A.I.!.!.~.^.^.^.Q.).~.~.^.^.^.^.^.^.~.~.^.^.^.E.E.J.M.h.m - r :.p.i.i.i.i.i.u.",
"i.i.i.y.6.3.U 1 x ` A.G.T.(.^.~.^.^.^.).^.^.^.^.).^.^.^.^.).^.^.^.^.).^.P.F.M.G $ 3 -.5.7.y.i.i.i.u.",
"i.i.i.3.h u I E _ V.I.Y.W.^.^.(.Q.).).Q.~.^.~.).~.^.^.^.^.^.^.^.^.^.^.Q.E.Y.K.x.W E K i k w.p.i.i.i.",
"i.i.i.=., O F l.A.I.!.~.(.!.^.^.).^.^.).~.).^.^.~.^.^.^.^.^.^.^.^.^.^.^.^.W.E.G.N.` x X i 5.p.i.i.i.",
"i.i.i.=.= O S v.D.P.^.^.~.^.^.^.^.).^.Q.).^.^.^.~.^.^.^.).~.).~.^.^.^.^.).).E.J.N.` z   t 5.p.p.i.u.",
"i.p.i.=.=   F l.S.P.^.).^.~.^.^.).Q.~.).~.).~.^.^.^.^.^.~.^.~.^.^.^.^.^.^.Q.E.J.M.h.z   t 5.p.i.i.i.",
"i.u.y.*.=   S j.C.P.Q.Q.~.~.~.^.^.).^.^.^.~.^.^.^.^.^.^.^.^.^.^.^.^.^.^.^.W.E.F.N.` x   t 4.i.u.p.i.",
"r.q.2.k -   V a.v.S.J.I.W.).^.^.^.Q.).~.).~.^.^.~.).^.~.).^.^.^.^.^.^.^.T.P.J.N.j.E l   5 >.0.q.u.i.",
"e.1.@.f -   x D a.g.A.D.T.).~.^.(.~.^.^.~.(.(.^.~.^.^.~.^.~.^.).^.^.^.W.P.D.N.h./ S @   4  .%.8.u.p.",
"0.&.o.d -   c G a.s.k.A.P.T.Q.Q.~.^.^.^.(.~.~.(.^.^.~.(.^.(.^.^.).Q.E.T.G.n.j.a.J S #   4 { +.8.e.e.",
"&.@.o.d -   c G ~ a.s.g.A.H.P.W.(.^.^.^.~.~.^.(.).).~.^.^.^.~.).Q.E.K.H.M.f.a.~ J S #   4 { +.$.2.2.",
"O.o.o.d o   c G H H H a.b.A.G.W.^.^.~.(.~.(.!.(.~.^.~.^.^.^.^.~.).U.S.N.h./ J J J S #   4 } +.o.#.#.",
"o.o.o.d %   c G Q H H ~ g.v.A.I.Y.W.~.~.^.).^.(.).Q.^.Q.^.^.^.T.I.J.n.j.a.J H H J S @ . > { o.o.o.o.",
"o.o.o.d %   c G H H H ~ / a.g.A.G.I.~.^.).^.!.^.^.^.).).).^.T.L.G.N.s./ ~ H H J J S @   9 { o.o.o.#.",
"o.o.o.d % O c G H H H H Q H a.v.m.K.W.~.Q.Q.Q.Q.^.W.Q.Q.Q.Q.Y.D.n.j.~ H J H H J H S #   4 { +.o.X.+.",
"o.o.o.d %   c G H H H H H H ~ d.v.Z.L.P.P.P.I.P.P.P.I.P.P.P.L.M.f.s.~ H H J H J J S @   4 { o.o.o.o.",
"o.o.o.d %   c G ~ H H H H H Q ~ / j.C.A.A.A.A.A.A.A.A.A.A.A.N.f.J J J J H H H H J G #   : { o.o.o.#.",
"o.o.o.d %   c G Q H H H H H H H J f.n.n.n.n.n.n.n.n.n.n.N.N.k.a.J H H J H H H H H Z #   4 { +.o.o.o.",
"o.o.o.d %   c G H H H H H H H H J h.n.m.N.N.n.N.n.N.N.N.N.N.k.a.H H H H H H H H H S #   4 { o.o.o.o.",
"o.o.o.d %   c G J H H H H H H H J f.n.N.N.N.N.N.N.N.N.N.N.N.k.a.H H H H H H H H H F *   4 { +.o.o.o.",
"o.o.o.g 4 ; n C S H H H H H H H J h.n.n.N.N.N.N.N.N.N.N.n.N.k.a.H H H H H H H G G B 2 & 7 { +.o.o.o.",
"o.o.o.| ' d 0 1 l C H H H H H Q J f.n.n.n.N.m.m.N.N.n.N.N.N.k.a.H H H H J J G B # 2 e ' [ ..o.o.o.+.",
"o.o.o.X.o. .8 o + B H H H H H H J h.n.m.N.N.N.N.N.N.N.N.n.N.k.a.H H H H H H G l   & g ..o.#.o.o.#.#.",
"<.o.o.o.o.X.g 6 > n B S G H H H H f.n.m.m.m.N.m.n.N.n.N.N.N.k.a.H J H H G C B 2 4 w { +.o...+.$.&.2.",
"9.%...o.o.o...{ g 9 @ * D H H H ~ f.n.n.N.N.N.N.N.N.N.N.N.N.b.a.H H H H B # * e ' { ..o.o.o.o.&.q.e.",
"e.<.+.o.o.o...+.| 7 X * Z H H H J f.n.n.N.N.N.m.n.N.m.N.N.N.b.( H H G G N % & w ..+.o.o.o.o.$.8.u.u.",
"t.0.8.8.+.o.o.o...g 8 0 n c C G Q f.n.N.N.N.N.N.N.N.N.N.N.N.b.( H G n c F 6 w [ o.o.o.o.$.8.9.q.u.p.",
"i.t.t.9.$...o....... .g ; O l G ~ f.m.m.m.N.m.N.N.N.N.N.N.N.n.( H C @ . 6 { ....o.o.o.o.&.q.t.u.i.i.",
"p.i.i.q.<.%.$.$.o.o.o.{ 6 - n Z D ! d.g.j.d.h.h.f.g.d.d.h.h.` G G B * ; w ..+.o.o.#.$.%.8.e.p.p.i.i.",
"u.p.i.t.0.9.&.$.o.o.o. .g e q < l x M V M V M M V V V V V V b c * 2 w w [ ..o.o.X.$.8.0.q.u.p.p.i.i.",
"i.i.i.u.i.t.8.@.o.o.o.o.....d %   . . X O O . O . . . . . . . . . > { o...+.o.#.o.%.0.u.u.u.u.i.i.i.",
"i.i.i.i.p.u.0.<.%.@.o.o.+.o.' 6 : : : : : : : : : : : : : : : : : 8  .o.+...#.%.%.8.e.p.p.i.i.i.i.u.",
"i.i.i.i.i.u.t.e.0.&.o.o.o.o. .[ ' ' ] ' ' ' ' ' ' ' ' ' ' ' ' ' ' { ..o.o.X.#.8.q.e.t.i.i.i.i.i.i.i.",
"i.i.i.i.i.i.i.i.t.2.@.o.O.o.O.o.o.o.X.o.o.o.o.o.o.o.o.o.o.o.o.o.o.o.+.+.#.+.$.9.u.p.p.i.i.i.i.i.i.i.",
"i.i.i.i.i.i.i.p.u.0.2.1.2.1.&.O.o.o.o.o.o.O.o.o.o.o.o.o.o.o.o.o.o.$.<.8.8.1.8.q.u.i.i.i.i.i.i.i.i.i.",
"i.i.i.i.i.i.i.i.u.t.t.t.u.e.9.O.o.o.o.o.o.o.X.o.o.o.o.o.o.o.o.o.o.%.q.t.e.t.t.u.i.i.i.i.i.i.i.i.i.i.",
"i.i.i.i.i.i.i.i.i.i.i.i.p.i.0.$.o.O.O.O.o.@.+.o.O.O.O.O.o.O.O.@.#.<.e.i.i.i.i.i.i.i.i.i.i.i.i.i.i.i."
};
