/* XPM */
static char *image__1___1_1670597828[] = {
/* columns rows colors chars-per-pixel */
"50 50 71 1 ",
"  c #24150C",
". c #2A1609",
"X c #2D1A0D",
"o c #331B0C",
"O c #3A1E0C",
"+ c #2E1D11",
"@ c #331E11",
"# c #3D210D",
"$ c #3B2212",
"% c #44220C",
"& c #4B260D",
"* c #4E280E",
"= c #542A0E",
"- c #5B2D0F",
"; c #432512",
": c #492710",
"> c #452915",
", c #4D2912",
"< c #542C12",
"1 c #5B2E11",
"2 c #522F18",
"3 c #563013",
"4 c #5C3114",
"5 c #573318",
"6 c #5E3419",
"7 c #602F0F",
"8 c #61300F",
"9 c #633312",
"0 c #6D3612",
"q c #663817",
"w c #6D3816",
"e c #633618",
"r c #683718",
"t c #66391A",
"y c #6C3B1A",
"u c #703712",
"i c #733A14",
"p c #793E17",
"a c #733D1A",
"s c #7A3F18",
"d c #6A401A",
"f c #7B4017",
"g c #75411E",
"h c #7C421B",
"j c #7C491F",
"k c #7B4520",
"l c #7F4921",
"z c #83451C",
"x c #86481E",
"c c #89491F",
"v c #814721",
"b c #844A22",
"n c #8C4C22",
"m c #914F23",
"M c #8D5124",
"N c #945225",
"B c #995526",
"V c #975824",
"C c #9C5927",
"Z c #9C5629",
"A c #9D5929",
"S c #A05F27",
"D c #A25D2A",
"F c #A6622B",
"G c #AA652D",
"H c #A7682C",
"J c #AE692E",
"K c #B26D2F",
"L c #B3702F",
"P c #B46F30",
"I c #B57130",
/* pixels */
"5FChCBkCZZZBzpbeAGz0izCDj4BKKDcna5eMFbinZBmhixFx9w",
"hDJGFNkCzpzp0itNNhi00zFJZy9ZJDZa=zADNpsBZDGDNppfn5",
"zNDDZNequ00iu<aNpp0iicKIGk<smmp1iNZZANmDDNDKJBnNNa",
"0izmzi9*09121<6mcBmczBPKDN<809&7pmmnNZZmzpsmDZBmp%",
"800i0u0%<anZNNgkZDDDZZDZZZ1o=<O4izNmzssipzpuhzpu=1",
"<0i00u0%kZFIGZN9cBZNcfiiphOtDFr&=0pnxuicZNi0uu9%-p",
"b10009%,ZZGIJZZw1ssiuu8-*O 4FJp9-&%7iuumBpuu84<>-i",
"Gb4=*49eZZFJFAZz=&-97&&p4%&0mKNmmz0-&8uzh0-&yNHHe8",
"KJn25CfyBZZNzzfi7%<12eZGtgyncDDZNcp<1e=*4t,>FcmJjo",
"NABbdGGkyNmii08*3VJDDFFntN6NZZBnp=<jFGM5hZnyCmmnuO",
"ispcyZGx&9iui0=<zCDDAZNyAG3pBZmi*&iCGFcyNZm<fNzi4a",
"i00i<pzp=o&-80#%iiznzi<nIJy4psi&%qwipu-*shp9%909-p",
"u0u9o8uu=&-===%o=0009&7mGDm189&eNJy*4yb99uu7%%<&0u",
"0u9&O&--=xNcmVh#qq-0%=upmnzi=:<74g9eCJIC991gCnkd9-",
"&==9i%&0VKJJFDgwFFfyye10i0ui1&0u08qFLHSmy<bDGKKKFg",
"fhzBz=iCKDZZc3=fHCNNbh;%0998=<<-==8NBfiu9anszmSGJG",
"JDBZz-iNZmzr=99<>#<4=97-=-<1MGnegt2np0u097i0q8iszc",
"PNszM<0iu-&<xBz9$;nFGDhfhnneAGBnZh<Nzuuu8===4<%&*=",
"Jz0uny%<$@hFKGb4neVPKKZDFFDyrzNBm9eGZzii1:inDn1971",
"Bui0zb%14,vKJN4wN9hFKJJPIIKb=ihp1%NPGDZm9bDPPZ6zfn",
"p0u0fB40s01BN5*imy9nDDDJJPGnO7e1y1mGDDma=NPIJkkGJK",
"uuuicZe9BB9$&<=0nm=0zsspznmv@Otnm7izzs9o:mZmh<nDFF",
"uu0ipi&0FGn&jV<0cZy=uu0000ia$tKJBe9u9&+21pp0:Oizcf",
"80u0=&9VLGbjKPe,ii0&=uuuu0i04NDDc-7-=;2ne81ibk10i0",
"4=-&=fBKJbkHPFy$-0u1.;9000089mccp-&OkkvZ,yZJKA;*-1",
"8.O8upzcnaCJZnyoO%=ey@o:&&&OOuuu00=gGjiz5BJKKB,6bA",
"==-=80ui7aBma0<-00vZDn5hu090<1uu0&gKPb19aZCABkbPIL",
"0fp0-=80==pi0=9uimDPJFgkZmccNh<71,MKKN1<0sppr6FIHN",
"SDNzp0-=<&=%@1niiBJIPDmbKKDmNZy6Nh9NJKh%8uuu=sZZh=",
"KKDZBmyhFBzkOiBpumDJPDNkDJDiingnArwNGIJl49u8&ipr=q",
"IJNNAnyDPDZZ6ampuxDDDZN1smz0u0rvp-izBFJJNa<qee%#7f",
"FZppa*0cBzhZb<0uuixnnZno-ii07%ip0%90iaznNgbJDMd#=i",
"ch07oo4i00hBBx*-90i0004-&==&@O09&o&0uuuiurBczns=&9",
"979q#7180iii9-%%<*%=&=0u08-Xeq*=<59=7897=7s087yMHF",
"bMHKy0xw-==%#-9pCy=00u0uii9,NZccBymi---==&14gnFPGB",
"DKIIxqnJNja4-ipBKy-ifccNSz84NGKSZyANhzcnp11izhshpi",
"zCFVe0GLJZZa8hCDKN<0ZJKIKDv9pmCZnlKDADKGb<7=777--1",
"0pf=#ucBnsza7cGFDZg9BFJJFDb1uuiitHPDAJPGaemk9e%=1w",
"9095e8uiu97%7mDDNzmgy44gmc4%009=yJGmnDGZe7zNZn4yq4",
"z44FFq8088<o-cmzpuib,aa=&<<<&&=%iNnisBn9@%7inybJJF",
"JkaJPk@<nmmv<0pi0uuieABp,mDZvpzy7ii0uu<;2<=1&%nDKG",
"NDvbAs5mDDDDb90uuu1rZKZy,iNDDZDm100i9evDGGBvn4icnn",
"iNmkn9kZDIIJDv=81%6NJAgks44zBZJJn<1&&nDJIPGZDb<9u0",
"iNgsDmynZDPPDb%:O+8pzptxuiy7sZPIG5+O:0nmDDAZZDy=1=",
"pn<ivn<:uzmBB90sNy5000yvu0pr8zDGB<2ai&0ihnnsvNw-ih",
"9<,9974a19iii1nZADe=009msiiv1uhi<<nGDe&0uiu0uu&sBD",
"bBNbv<aze:4u=1BbZZyvar=smvhi&&&&<9pZDm:=9uuu0:wDKK",
"JDhimk70bZa,+6BimbbPZBa8piu1p99zn7ucBvgne=-7:gZGII",
"AZAFSN1<BKFmg6NsmkbBhzv199-impmKM1upi&yNCny;>vZDKJ",
"vNJIKD5=cDDZZabszyaiu0pa&%#xZBGIv1uu-&0uiznhO9hnNN"
};
